<?xml version="1.0" encoding="utf-8" standalone="no"?>
<!DOCTYPE svg PUBLIC "-//W3C//DTD SVG 1.1//EN"
  "http://www.w3.org/Graphics/SVG/1.1/DTD/svg11.dtd">
<svg xmlns:xlink="http://www.w3.org/1999/xlink" width="1072.77375pt" height="426.434375pt" viewBox="0 0 1072.77375 426.434375" xmlns="http://www.w3.org/2000/svg" version="1.1">
 <metadata>
  <rdf:RDF xmlns:dc="http://purl.org/dc/elements/1.1/" xmlns:cc="http://creativecommons.org/ns#" xmlns:rdf="http://www.w3.org/1999/02/22-rdf-syntax-ns#">
   <cc:Work>
    <dc:type rdf:resource="http://purl.org/dc/dcmitype/StillImage"/>
    <dc:date>2026-01-24T18:48:02.860439</dc:date>
    <dc:format>image/svg+xml</dc:format>
    <dc:creator>
     <cc:Agent>
      <dc:title>Matplotlib v3.9.2, https://matplotlib.org/</dc:title>
     </cc:Agent>
    </dc:creator>
   </cc:Work>
  </rdf:RDF>
 </metadata>
 <defs>
  <style type="text/css">*{stroke-linejoin: round; stroke-linecap: butt}</style>
 </defs>
 <g id="figure_1">
  <g id="patch_1">
   <path d="M 0 426.434375 
L 1072.77375 426.434375 
L 1072.77375 0 
L 0 0 
z
" style="fill: #ffffff"/>
  </g>
  <g id="axes_1">
   <g id="patch_2">
    <path d="M 47.24375 388.6 
L 330.113194 388.6 
L 330.113194 61.44 
L 47.24375 61.44 
z
" style="fill: #ffffff"/>
   </g>
   <g id="patch_3">
    <path d="M 89.674167 388.6 
L 146.248056 388.6 
L 146.248056 164.479086 
L 89.674167 164.479086 
z
" clip-path="url(#p5f6cead8ed)" style="fill: #5a948a"/>
   </g>
   <g id="patch_4">
    <path d="M 231.108889 388.6 
L 287.682778 388.6 
L 287.682778 315.302732 
L 231.108889 315.302732 
z
" clip-path="url(#p5f6cead8ed)" style="fill: #2b667c"/>
   </g>
   <g id="matplotlib.axis_1">
    <g id="xtick_1">
     <g id="line2d_1">
      <defs>
       <path id="mf0a952b56b" d="M 0 0 
L 0 3.5 
" style="stroke: #000000; stroke-width: 0.8"/>
      </defs>
      <g>
       <use xlink:href="#mf0a952b56b" x="117.961111" y="388.6" style="stroke: #000000; stroke-width: 0.8"/>
      </g>
     </g>
     <g id="text_1">
      <!-- 0 -->
      <g transform="translate(114.779861 403.198438) scale(0.1 -0.1)">
       <defs>
        <path id="DejaVuSans-30" d="M 2034 4250 
Q 1547 4250 1301 3770 
Q 1056 3291 1056 2328 
Q 1056 1369 1301 889 
Q 1547 409 2034 409 
Q 2525 409 2770 889 
Q 3016 1369 3016 2328 
Q 3016 3291 2770 3770 
Q 2525 4250 2034 4250 
z
M 2034 4750 
Q 2819 4750 3233 4129 
Q 3647 3509 3647 2328 
Q 3647 1150 3233 529 
Q 2819 -91 2034 -91 
Q 1250 -91 836 529 
Q 422 1150 422 2328 
Q 422 3509 836 4129 
Q 1250 4750 2034 4750 
z
" transform="scale(0.015625)"/>
       </defs>
       <use xlink:href="#DejaVuSans-30"/>
      </g>
     </g>
    </g>
    <g id="xtick_2">
     <g id="line2d_2">
      <g>
       <use xlink:href="#mf0a952b56b" x="259.395833" y="388.6" style="stroke: #000000; stroke-width: 0.8"/>
      </g>
     </g>
     <g id="text_2">
      <!-- 1 -->
      <g transform="translate(256.214583 403.198438) scale(0.1 -0.1)">
       <defs>
        <path id="DejaVuSans-31" d="M 794 531 
L 1825 531 
L 1825 4091 
L 703 3866 
L 703 4441 
L 1819 4666 
L 2450 4666 
L 2450 531 
L 3481 531 
L 3481 0 
L 794 0 
L 794 531 
z
" transform="scale(0.015625)"/>
       </defs>
       <use xlink:href="#DejaVuSans-31"/>
      </g>
     </g>
    </g>
    <g id="text_3">
     <!-- status -->
     <g transform="translate(171.013628 416.876562) scale(0.1 -0.1)">
      <defs>
       <path id="DejaVuSans-Bold-73" d="M 3272 3391 
L 3272 2541 
Q 2913 2691 2578 2766 
Q 2244 2841 1947 2841 
Q 1628 2841 1473 2761 
Q 1319 2681 1319 2516 
Q 1319 2381 1436 2309 
Q 1553 2238 1856 2203 
L 2053 2175 
Q 2913 2066 3209 1816 
Q 3506 1566 3506 1031 
Q 3506 472 3093 190 
Q 2681 -91 1863 -91 
Q 1516 -91 1145 -36 
Q 775 19 384 128 
L 384 978 
Q 719 816 1070 734 
Q 1422 653 1784 653 
Q 2113 653 2278 743 
Q 2444 834 2444 1013 
Q 2444 1163 2330 1236 
Q 2216 1309 1875 1350 
L 1678 1375 
Q 931 1469 631 1722 
Q 331 1975 331 2491 
Q 331 3047 712 3315 
Q 1094 3584 1881 3584 
Q 2191 3584 2531 3537 
Q 2872 3491 3272 3391 
z
" transform="scale(0.015625)"/>
       <path id="DejaVuSans-Bold-74" d="M 1759 4494 
L 1759 3500 
L 2913 3500 
L 2913 2700 
L 1759 2700 
L 1759 1216 
Q 1759 972 1856 886 
Q 1953 800 2241 800 
L 2816 800 
L 2816 0 
L 1856 0 
Q 1194 0 917 276 
Q 641 553 641 1216 
L 641 2700 
L 84 2700 
L 84 3500 
L 641 3500 
L 641 4494 
L 1759 4494 
z
" transform="scale(0.015625)"/>
       <path id="DejaVuSans-Bold-61" d="M 2106 1575 
Q 1756 1575 1579 1456 
Q 1403 1338 1403 1106 
Q 1403 894 1545 773 
Q 1688 653 1941 653 
Q 2256 653 2472 879 
Q 2688 1106 2688 1447 
L 2688 1575 
L 2106 1575 
z
M 3816 1997 
L 3816 0 
L 2688 0 
L 2688 519 
Q 2463 200 2181 54 
Q 1900 -91 1497 -91 
Q 953 -91 614 226 
Q 275 544 275 1050 
Q 275 1666 698 1953 
Q 1122 2241 2028 2241 
L 2688 2241 
L 2688 2328 
Q 2688 2594 2478 2717 
Q 2269 2841 1825 2841 
Q 1466 2841 1156 2769 
Q 847 2697 581 2553 
L 581 3406 
Q 941 3494 1303 3539 
Q 1666 3584 2028 3584 
Q 2975 3584 3395 3211 
Q 3816 2838 3816 1997 
z
" transform="scale(0.015625)"/>
       <path id="DejaVuSans-Bold-75" d="M 500 1363 
L 500 3500 
L 1625 3500 
L 1625 3150 
Q 1625 2866 1622 2436 
Q 1619 2006 1619 1863 
Q 1619 1441 1641 1255 
Q 1663 1069 1716 984 
Q 1784 875 1895 815 
Q 2006 756 2150 756 
Q 2500 756 2700 1025 
Q 2900 1294 2900 1772 
L 2900 3500 
L 4019 3500 
L 4019 0 
L 2900 0 
L 2900 506 
Q 2647 200 2364 54 
Q 2081 -91 1741 -91 
Q 1134 -91 817 281 
Q 500 653 500 1363 
z
" transform="scale(0.015625)"/>
      </defs>
      <use xlink:href="#DejaVuSans-Bold-73"/>
      <use xlink:href="#DejaVuSans-Bold-74" x="59.521484"/>
      <use xlink:href="#DejaVuSans-Bold-61" x="107.324219"/>
      <use xlink:href="#DejaVuSans-Bold-74" x="174.804688"/>
      <use xlink:href="#DejaVuSans-Bold-75" x="222.607422"/>
      <use xlink:href="#DejaVuSans-Bold-73" x="293.798828"/>
     </g>
    </g>
   </g>
   <g id="matplotlib.axis_2">
    <g id="ytick_1">
     <g id="line2d_3">
      <defs>
       <path id="m7f5fab5d85" d="M 0 0 
L -3.5 0 
" style="stroke: #000000; stroke-width: 0.8"/>
      </defs>
      <g>
       <use xlink:href="#m7f5fab5d85" x="47.24375" y="388.6" style="stroke: #000000; stroke-width: 0.8"/>
      </g>
     </g>
     <g id="text_4">
      <!-- 0 -->
      <g transform="translate(33.88125 392.399219) scale(0.1 -0.1)">
       <use xlink:href="#DejaVuSans-30"/>
      </g>
     </g>
    </g>
    <g id="ytick_2">
     <g id="line2d_4">
      <g>
       <use xlink:href="#m7f5fab5d85" x="47.24375" y="329.116364" style="stroke: #000000; stroke-width: 0.8"/>
      </g>
     </g>
     <g id="text_5">
      <!-- 20 -->
      <g transform="translate(27.51875 332.915582) scale(0.1 -0.1)">
       <defs>
        <path id="DejaVuSans-32" d="M 1228 531 
L 3431 531 
L 3431 0 
L 469 0 
L 469 531 
Q 828 903 1448 1529 
Q 2069 2156 2228 2338 
Q 2531 2678 2651 2914 
Q 2772 3150 2772 3378 
Q 2772 3750 2511 3984 
Q 2250 4219 1831 4219 
Q 1534 4219 1204 4116 
Q 875 4013 500 3803 
L 500 4441 
Q 881 4594 1212 4672 
Q 1544 4750 1819 4750 
Q 2544 4750 2975 4387 
Q 3406 4025 3406 3419 
Q 3406 3131 3298 2873 
Q 3191 2616 2906 2266 
Q 2828 2175 2409 1742 
Q 1991 1309 1228 531 
z
" transform="scale(0.015625)"/>
       </defs>
       <use xlink:href="#DejaVuSans-32"/>
       <use xlink:href="#DejaVuSans-30" x="63.623047"/>
      </g>
     </g>
    </g>
    <g id="ytick_3">
     <g id="line2d_5">
      <g>
       <use xlink:href="#m7f5fab5d85" x="47.24375" y="269.632727" style="stroke: #000000; stroke-width: 0.8"/>
      </g>
     </g>
     <g id="text_6">
      <!-- 40 -->
      <g transform="translate(27.51875 273.431946) scale(0.1 -0.1)">
       <defs>
        <path id="DejaVuSans-34" d="M 2419 4116 
L 825 1625 
L 2419 1625 
L 2419 4116 
z
M 2253 4666 
L 3047 4666 
L 3047 1625 
L 3713 1625 
L 3713 1100 
L 3047 1100 
L 3047 0 
L 2419 0 
L 2419 1100 
L 313 1100 
L 313 1709 
L 2253 4666 
z
" transform="scale(0.015625)"/>
       </defs>
       <use xlink:href="#DejaVuSans-34"/>
       <use xlink:href="#DejaVuSans-30" x="63.623047"/>
      </g>
     </g>
    </g>
    <g id="ytick_4">
     <g id="line2d_6">
      <g>
       <use xlink:href="#m7f5fab5d85" x="47.24375" y="210.149091" style="stroke: #000000; stroke-width: 0.8"/>
      </g>
     </g>
     <g id="text_7">
      <!-- 60 -->
      <g transform="translate(27.51875 213.94831) scale(0.1 -0.1)">
       <defs>
        <path id="DejaVuSans-36" d="M 2113 2584 
Q 1688 2584 1439 2293 
Q 1191 2003 1191 1497 
Q 1191 994 1439 701 
Q 1688 409 2113 409 
Q 2538 409 2786 701 
Q 3034 994 3034 1497 
Q 3034 2003 2786 2293 
Q 2538 2584 2113 2584 
z
M 3366 4563 
L 3366 3988 
Q 3128 4100 2886 4159 
Q 2644 4219 2406 4219 
Q 1781 4219 1451 3797 
Q 1122 3375 1075 2522 
Q 1259 2794 1537 2939 
Q 1816 3084 2150 3084 
Q 2853 3084 3261 2657 
Q 3669 2231 3669 1497 
Q 3669 778 3244 343 
Q 2819 -91 2113 -91 
Q 1303 -91 875 529 
Q 447 1150 447 2328 
Q 447 3434 972 4092 
Q 1497 4750 2381 4750 
Q 2619 4750 2861 4703 
Q 3103 4656 3366 4563 
z
" transform="scale(0.015625)"/>
       </defs>
       <use xlink:href="#DejaVuSans-36"/>
       <use xlink:href="#DejaVuSans-30" x="63.623047"/>
      </g>
     </g>
    </g>
    <g id="ytick_5">
     <g id="line2d_7">
      <g>
       <use xlink:href="#m7f5fab5d85" x="47.24375" y="150.665455" style="stroke: #000000; stroke-width: 0.8"/>
      </g>
     </g>
     <g id="text_8">
      <!-- 80 -->
      <g transform="translate(27.51875 154.464673) scale(0.1 -0.1)">
       <defs>
        <path id="DejaVuSans-38" d="M 2034 2216 
Q 1584 2216 1326 1975 
Q 1069 1734 1069 1313 
Q 1069 891 1326 650 
Q 1584 409 2034 409 
Q 2484 409 2743 651 
Q 3003 894 3003 1313 
Q 3003 1734 2745 1975 
Q 2488 2216 2034 2216 
z
M 1403 2484 
Q 997 2584 770 2862 
Q 544 3141 544 3541 
Q 544 4100 942 4425 
Q 1341 4750 2034 4750 
Q 2731 4750 3128 4425 
Q 3525 4100 3525 3541 
Q 3525 3141 3298 2862 
Q 3072 2584 2669 2484 
Q 3125 2378 3379 2068 
Q 3634 1759 3634 1313 
Q 3634 634 3220 271 
Q 2806 -91 2034 -91 
Q 1263 -91 848 271 
Q 434 634 434 1313 
Q 434 1759 690 2068 
Q 947 2378 1403 2484 
z
M 1172 3481 
Q 1172 3119 1398 2916 
Q 1625 2713 2034 2713 
Q 2441 2713 2670 2916 
Q 2900 3119 2900 3481 
Q 2900 3844 2670 4047 
Q 2441 4250 2034 4250 
Q 1625 4250 1398 4047 
Q 1172 3844 1172 3481 
z
" transform="scale(0.015625)"/>
       </defs>
       <use xlink:href="#DejaVuSans-38"/>
       <use xlink:href="#DejaVuSans-30" x="63.623047"/>
      </g>
     </g>
    </g>
    <g id="ytick_6">
     <g id="line2d_8">
      <g>
       <use xlink:href="#m7f5fab5d85" x="47.24375" y="91.181818" style="stroke: #000000; stroke-width: 0.8"/>
      </g>
     </g>
     <g id="text_9">
      <!-- 100 -->
      <g transform="translate(21.15625 94.981037) scale(0.1 -0.1)">
       <use xlink:href="#DejaVuSans-31"/>
       <use xlink:href="#DejaVuSans-30" x="63.623047"/>
       <use xlink:href="#DejaVuSans-30" x="127.246094"/>
      </g>
     </g>
    </g>
    <g id="text_10">
     <!-- frequency_pct -->
     <g transform="translate(14.798438 264.797344) rotate(-90) scale(0.1 -0.1)">
      <defs>
       <path id="DejaVuSans-Bold-66" d="M 2841 4863 
L 2841 4128 
L 2222 4128 
Q 1984 4128 1890 4042 
Q 1797 3956 1797 3744 
L 1797 3500 
L 2753 3500 
L 2753 2700 
L 1797 2700 
L 1797 0 
L 678 0 
L 678 2700 
L 122 2700 
L 122 3500 
L 678 3500 
L 678 3744 
Q 678 4316 997 4589 
Q 1316 4863 1984 4863 
L 2841 4863 
z
" transform="scale(0.015625)"/>
       <path id="DejaVuSans-Bold-72" d="M 3138 2547 
Q 2991 2616 2845 2648 
Q 2700 2681 2553 2681 
Q 2122 2681 1889 2404 
Q 1656 2128 1656 1613 
L 1656 0 
L 538 0 
L 538 3500 
L 1656 3500 
L 1656 2925 
Q 1872 3269 2151 3426 
Q 2431 3584 2822 3584 
Q 2878 3584 2943 3579 
Q 3009 3575 3134 3559 
L 3138 2547 
z
" transform="scale(0.015625)"/>
       <path id="DejaVuSans-Bold-65" d="M 4031 1759 
L 4031 1441 
L 1416 1441 
Q 1456 1047 1700 850 
Q 1944 653 2381 653 
Q 2734 653 3104 758 
Q 3475 863 3866 1075 
L 3866 213 
Q 3469 63 3072 -14 
Q 2675 -91 2278 -91 
Q 1328 -91 801 392 
Q 275 875 275 1747 
Q 275 2603 792 3093 
Q 1309 3584 2216 3584 
Q 3041 3584 3536 3087 
Q 4031 2591 4031 1759 
z
M 2881 2131 
Q 2881 2450 2695 2645 
Q 2509 2841 2209 2841 
Q 1884 2841 1681 2658 
Q 1478 2475 1428 2131 
L 2881 2131 
z
" transform="scale(0.015625)"/>
       <path id="DejaVuSans-Bold-71" d="M 2181 2772 
Q 1825 2772 1636 2509 
Q 1447 2247 1447 1747 
Q 1447 1247 1636 984 
Q 1825 722 2181 722 
Q 2541 722 2730 984 
Q 2919 1247 2919 1747 
Q 2919 2247 2730 2509 
Q 2541 2772 2181 2772 
z
M 2919 506 
Q 2688 197 2409 53 
Q 2131 -91 1766 -91 
Q 1119 -91 703 423 
Q 288 938 288 1747 
Q 288 2556 703 3067 
Q 1119 3578 1766 3578 
Q 2131 3578 2409 3434 
Q 2688 3291 2919 2981 
L 2919 3500 
L 4044 3500 
L 4044 -1331 
L 2919 -1331 
L 2919 506 
z
" transform="scale(0.015625)"/>
       <path id="DejaVuSans-Bold-6e" d="M 4056 2131 
L 4056 0 
L 2931 0 
L 2931 347 
L 2931 1631 
Q 2931 2084 2911 2256 
Q 2891 2428 2841 2509 
Q 2775 2619 2662 2680 
Q 2550 2741 2406 2741 
Q 2056 2741 1856 2470 
Q 1656 2200 1656 1722 
L 1656 0 
L 538 0 
L 538 3500 
L 1656 3500 
L 1656 2988 
Q 1909 3294 2193 3439 
Q 2478 3584 2822 3584 
Q 3428 3584 3742 3212 
Q 4056 2841 4056 2131 
z
" transform="scale(0.015625)"/>
       <path id="DejaVuSans-Bold-63" d="M 3366 3391 
L 3366 2478 
Q 3138 2634 2908 2709 
Q 2678 2784 2431 2784 
Q 1963 2784 1702 2511 
Q 1441 2238 1441 1747 
Q 1441 1256 1702 982 
Q 1963 709 2431 709 
Q 2694 709 2930 787 
Q 3166 866 3366 1019 
L 3366 103 
Q 3103 6 2833 -42 
Q 2563 -91 2291 -91 
Q 1344 -91 809 395 
Q 275 881 275 1747 
Q 275 2613 809 3098 
Q 1344 3584 2291 3584 
Q 2566 3584 2833 3536 
Q 3100 3488 3366 3391 
z
" transform="scale(0.015625)"/>
       <path id="DejaVuSans-Bold-79" d="M 78 3500 
L 1197 3500 
L 2138 1125 
L 2938 3500 
L 4056 3500 
L 2584 -331 
Q 2363 -916 2067 -1148 
Q 1772 -1381 1288 -1381 
L 641 -1381 
L 641 -647 
L 991 -647 
Q 1275 -647 1404 -556 
Q 1534 -466 1606 -231 
L 1638 -134 
L 78 3500 
z
" transform="scale(0.015625)"/>
       <path id="DejaVuSans-Bold-5f" d="M 3200 -916 
L 3200 -1509 
L 0 -1509 
L 0 -916 
L 3200 -916 
z
" transform="scale(0.015625)"/>
       <path id="DejaVuSans-Bold-70" d="M 1656 506 
L 1656 -1331 
L 538 -1331 
L 538 3500 
L 1656 3500 
L 1656 2988 
Q 1888 3294 2169 3439 
Q 2450 3584 2816 3584 
Q 3463 3584 3878 3070 
Q 4294 2556 4294 1747 
Q 4294 938 3878 423 
Q 3463 -91 2816 -91 
Q 2450 -91 2169 54 
Q 1888 200 1656 506 
z
M 2400 2772 
Q 2041 2772 1848 2508 
Q 1656 2244 1656 1747 
Q 1656 1250 1848 986 
Q 2041 722 2400 722 
Q 2759 722 2948 984 
Q 3138 1247 3138 1747 
Q 3138 2247 2948 2509 
Q 2759 2772 2400 2772 
z
" transform="scale(0.015625)"/>
      </defs>
      <use xlink:href="#DejaVuSans-Bold-66"/>
      <use xlink:href="#DejaVuSans-Bold-72" x="43.505859"/>
      <use xlink:href="#DejaVuSans-Bold-65" x="92.822266"/>
      <use xlink:href="#DejaVuSans-Bold-71" x="160.644531"/>
      <use xlink:href="#DejaVuSans-Bold-75" x="232.226562"/>
      <use xlink:href="#DejaVuSans-Bold-65" x="303.417969"/>
      <use xlink:href="#DejaVuSans-Bold-6e" x="371.240234"/>
      <use xlink:href="#DejaVuSans-Bold-63" x="442.431641"/>
      <use xlink:href="#DejaVuSans-Bold-79" x="501.708984"/>
      <use xlink:href="#DejaVuSans-Bold-5f" x="566.894531"/>
      <use xlink:href="#DejaVuSans-Bold-70" x="616.894531"/>
      <use xlink:href="#DejaVuSans-Bold-63" x="688.476562"/>
      <use xlink:href="#DejaVuSans-Bold-74" x="747.753906"/>
     </g>
    </g>
   </g>
   <g id="line2d_9">
    <path clip-path="url(#p5f6cead8ed)" style="fill: none; stroke: #424242; stroke-width: 2.25; stroke-linecap: square"/>
   </g>
   <g id="line2d_10">
    <path clip-path="url(#p5f6cead8ed)" style="fill: none; stroke: #424242; stroke-width: 2.25; stroke-linecap: square"/>
   </g>
   <g id="patch_5">
    <path d="M 47.24375 388.6 
L 47.24375 61.44 
" style="fill: none; stroke: #000000; stroke-width: 0.8; stroke-linejoin: miter; stroke-linecap: square"/>
   </g>
   <g id="patch_6">
    <path d="M 330.113194 388.6 
L 330.113194 61.44 
" style="fill: none; stroke: #000000; stroke-width: 0.8; stroke-linejoin: miter; stroke-linecap: square"/>
   </g>
   <g id="patch_7">
    <path d="M 47.24375 388.6 
L 330.113194 388.6 
" style="fill: none; stroke: #000000; stroke-width: 0.8; stroke-linejoin: miter; stroke-linecap: square"/>
   </g>
   <g id="patch_8">
    <path d="M 47.24375 61.44 
L 330.113194 61.44 
" style="fill: none; stroke: #000000; stroke-width: 0.8; stroke-linejoin: miter; stroke-linecap: square"/>
   </g>
   <g id="text_11">
    <!-- 75.36% -->
    <g transform="translate(97.136111 162.399398) scale(0.1 -0.1)">
     <defs>
      <path id="DejaVuSans-Bold-37" d="M 428 4666 
L 3944 4666 
L 3944 3988 
L 2125 0 
L 953 0 
L 2675 3781 
L 428 3781 
L 428 4666 
z
" transform="scale(0.015625)"/>
      <path id="DejaVuSans-Bold-35" d="M 678 4666 
L 3669 4666 
L 3669 3781 
L 1638 3781 
L 1638 3059 
Q 1775 3097 1914 3117 
Q 2053 3138 2203 3138 
Q 3056 3138 3531 2711 
Q 4006 2284 4006 1522 
Q 4006 766 3489 337 
Q 2972 -91 2053 -91 
Q 1656 -91 1267 -14 
Q 878 63 494 219 
L 494 1166 
Q 875 947 1217 837 
Q 1559 728 1863 728 
Q 2300 728 2551 942 
Q 2803 1156 2803 1522 
Q 2803 1891 2551 2103 
Q 2300 2316 1863 2316 
Q 1603 2316 1309 2248 
Q 1016 2181 678 2041 
L 678 4666 
z
" transform="scale(0.015625)"/>
      <path id="DejaVuSans-Bold-2e" d="M 653 1209 
L 1778 1209 
L 1778 0 
L 653 0 
L 653 1209 
z
" transform="scale(0.015625)"/>
      <path id="DejaVuSans-Bold-33" d="M 2981 2516 
Q 3453 2394 3698 2092 
Q 3944 1791 3944 1325 
Q 3944 631 3412 270 
Q 2881 -91 1863 -91 
Q 1503 -91 1142 -33 
Q 781 25 428 141 
L 428 1069 
Q 766 900 1098 814 
Q 1431 728 1753 728 
Q 2231 728 2486 893 
Q 2741 1059 2741 1369 
Q 2741 1688 2480 1852 
Q 2219 2016 1709 2016 
L 1228 2016 
L 1228 2791 
L 1734 2791 
Q 2188 2791 2409 2933 
Q 2631 3075 2631 3366 
Q 2631 3634 2415 3781 
Q 2200 3928 1806 3928 
Q 1516 3928 1219 3862 
Q 922 3797 628 3669 
L 628 4550 
Q 984 4650 1334 4700 
Q 1684 4750 2022 4750 
Q 2931 4750 3382 4451 
Q 3834 4153 3834 3553 
Q 3834 3144 3618 2883 
Q 3403 2622 2981 2516 
z
" transform="scale(0.015625)"/>
      <path id="DejaVuSans-Bold-36" d="M 2316 2303 
Q 2000 2303 1842 2098 
Q 1684 1894 1684 1484 
Q 1684 1075 1842 870 
Q 2000 666 2316 666 
Q 2634 666 2792 870 
Q 2950 1075 2950 1484 
Q 2950 1894 2792 2098 
Q 2634 2303 2316 2303 
z
M 3803 4544 
L 3803 3681 
Q 3506 3822 3243 3889 
Q 2981 3956 2731 3956 
Q 2194 3956 1894 3657 
Q 1594 3359 1544 2772 
Q 1750 2925 1990 3001 
Q 2231 3078 2516 3078 
Q 3231 3078 3670 2659 
Q 4109 2241 4109 1563 
Q 4109 813 3618 361 
Q 3128 -91 2303 -91 
Q 1394 -91 895 523 
Q 397 1138 397 2266 
Q 397 3422 980 4083 
Q 1563 4744 2578 4744 
Q 2900 4744 3203 4694 
Q 3506 4644 3803 4544 
z
" transform="scale(0.015625)"/>
      <path id="DejaVuSans-Bold-25" d="M 4959 1925 
Q 4738 1925 4616 1733 
Q 4494 1541 4494 1184 
Q 4494 825 4614 633 
Q 4734 441 4959 441 
Q 5184 441 5303 633 
Q 5422 825 5422 1184 
Q 5422 1541 5301 1733 
Q 5181 1925 4959 1925 
z
M 4959 2450 
Q 5541 2450 5875 2112 
Q 6209 1775 6209 1184 
Q 6209 594 5875 251 
Q 5541 -91 4959 -91 
Q 4378 -91 4042 251 
Q 3706 594 3706 1184 
Q 3706 1772 4042 2111 
Q 4378 2450 4959 2450 
z
M 2094 -91 
L 1403 -91 
L 4319 4750 
L 5013 4750 
L 2094 -91 
z
M 1453 4750 
Q 2034 4750 2367 4411 
Q 2700 4072 2700 3481 
Q 2700 2891 2367 2550 
Q 2034 2209 1453 2209 
Q 872 2209 539 2550 
Q 206 2891 206 3481 
Q 206 4072 539 4411 
Q 872 4750 1453 4750 
z
M 1453 4225 
Q 1228 4225 1106 4031 
Q 984 3838 984 3481 
Q 984 3122 1106 2926 
Q 1228 2731 1453 2731 
Q 1678 2731 1798 2926 
Q 1919 3122 1919 3481 
Q 1919 3838 1797 4031 
Q 1675 4225 1453 4225 
z
" transform="scale(0.015625)"/>
     </defs>
     <use xlink:href="#DejaVuSans-Bold-37"/>
     <use xlink:href="#DejaVuSans-Bold-35" x="69.580078"/>
     <use xlink:href="#DejaVuSans-Bold-2e" x="139.160156"/>
     <use xlink:href="#DejaVuSans-Bold-33" x="177.148438"/>
     <use xlink:href="#DejaVuSans-Bold-36" x="246.728516"/>
     <use xlink:href="#DejaVuSans-Bold-25" x="316.308594"/>
    </g>
   </g>
   <g id="text_12">
    <!-- 24.64% -->
    <g transform="translate(238.570833 313.223045) scale(0.1 -0.1)">
     <defs>
      <path id="DejaVuSans-Bold-32" d="M 1844 884 
L 3897 884 
L 3897 0 
L 506 0 
L 506 884 
L 2209 2388 
Q 2438 2594 2547 2791 
Q 2656 2988 2656 3200 
Q 2656 3528 2436 3728 
Q 2216 3928 1850 3928 
Q 1569 3928 1234 3808 
Q 900 3688 519 3450 
L 519 4475 
Q 925 4609 1322 4679 
Q 1719 4750 2100 4750 
Q 2938 4750 3402 4381 
Q 3866 4013 3866 3353 
Q 3866 2972 3669 2642 
Q 3472 2313 2841 1759 
L 1844 884 
z
" transform="scale(0.015625)"/>
      <path id="DejaVuSans-Bold-34" d="M 2356 3675 
L 1038 1722 
L 2356 1722 
L 2356 3675 
z
M 2156 4666 
L 3494 4666 
L 3494 1722 
L 4159 1722 
L 4159 850 
L 3494 850 
L 3494 0 
L 2356 0 
L 2356 850 
L 288 850 
L 288 1881 
L 2156 4666 
z
" transform="scale(0.015625)"/>
     </defs>
     <use xlink:href="#DejaVuSans-Bold-32"/>
     <use xlink:href="#DejaVuSans-Bold-34" x="69.580078"/>
     <use xlink:href="#DejaVuSans-Bold-2e" x="139.160156"/>
     <use xlink:href="#DejaVuSans-Bold-36" x="177.148438"/>
     <use xlink:href="#DejaVuSans-Bold-34" x="246.728516"/>
     <use xlink:href="#DejaVuSans-Bold-25" x="316.308594"/>
    </g>
   </g>
   <g id="text_13">
    <!--  Distribution of status -->
    <g transform="translate(114.105972 55.44) scale(0.12 -0.12)">
     <defs>
      <path id="DejaVuSans-Bold-20" transform="scale(0.015625)"/>
      <path id="DejaVuSans-Bold-44" d="M 1791 3756 
L 1791 909 
L 2222 909 
Q 2959 909 3348 1275 
Q 3738 1641 3738 2338 
Q 3738 3031 3350 3393 
Q 2963 3756 2222 3756 
L 1791 3756 
z
M 588 4666 
L 1856 4666 
Q 2919 4666 3439 4514 
Q 3959 4363 4331 4000 
Q 4659 3684 4818 3271 
Q 4978 2859 4978 2338 
Q 4978 1809 4818 1395 
Q 4659 981 4331 666 
Q 3956 303 3431 151 
Q 2906 0 1856 0 
L 588 0 
L 588 4666 
z
" transform="scale(0.015625)"/>
      <path id="DejaVuSans-Bold-69" d="M 538 3500 
L 1656 3500 
L 1656 0 
L 538 0 
L 538 3500 
z
M 538 4863 
L 1656 4863 
L 1656 3950 
L 538 3950 
L 538 4863 
z
" transform="scale(0.015625)"/>
      <path id="DejaVuSans-Bold-62" d="M 2400 722 
Q 2759 722 2948 984 
Q 3138 1247 3138 1747 
Q 3138 2247 2948 2509 
Q 2759 2772 2400 2772 
Q 2041 2772 1848 2508 
Q 1656 2244 1656 1747 
Q 1656 1250 1848 986 
Q 2041 722 2400 722 
z
M 1656 2988 
Q 1888 3294 2169 3439 
Q 2450 3584 2816 3584 
Q 3463 3584 3878 3070 
Q 4294 2556 4294 1747 
Q 4294 938 3878 423 
Q 3463 -91 2816 -91 
Q 2450 -91 2169 54 
Q 1888 200 1656 506 
L 1656 0 
L 538 0 
L 538 4863 
L 1656 4863 
L 1656 2988 
z
" transform="scale(0.015625)"/>
      <path id="DejaVuSans-Bold-6f" d="M 2203 2784 
Q 1831 2784 1636 2517 
Q 1441 2250 1441 1747 
Q 1441 1244 1636 976 
Q 1831 709 2203 709 
Q 2569 709 2762 976 
Q 2956 1244 2956 1747 
Q 2956 2250 2762 2517 
Q 2569 2784 2203 2784 
z
M 2203 3584 
Q 3106 3584 3614 3096 
Q 4122 2609 4122 1747 
Q 4122 884 3614 396 
Q 3106 -91 2203 -91 
Q 1297 -91 786 396 
Q 275 884 275 1747 
Q 275 2609 786 3096 
Q 1297 3584 2203 3584 
z
" transform="scale(0.015625)"/>
     </defs>
     <use xlink:href="#DejaVuSans-Bold-20"/>
     <use xlink:href="#DejaVuSans-Bold-44" x="34.814453"/>
     <use xlink:href="#DejaVuSans-Bold-69" x="117.822266"/>
     <use xlink:href="#DejaVuSans-Bold-73" x="152.099609"/>
     <use xlink:href="#DejaVuSans-Bold-74" x="211.621094"/>
     <use xlink:href="#DejaVuSans-Bold-72" x="259.423828"/>
     <use xlink:href="#DejaVuSans-Bold-69" x="308.740234"/>
     <use xlink:href="#DejaVuSans-Bold-62" x="343.017578"/>
     <use xlink:href="#DejaVuSans-Bold-75" x="414.599609"/>
     <use xlink:href="#DejaVuSans-Bold-74" x="485.791016"/>
     <use xlink:href="#DejaVuSans-Bold-69" x="533.59375"/>
     <use xlink:href="#DejaVuSans-Bold-6f" x="567.871094"/>
     <use xlink:href="#DejaVuSans-Bold-6e" x="636.572266"/>
     <use xlink:href="#DejaVuSans-Bold-20" x="707.763672"/>
     <use xlink:href="#DejaVuSans-Bold-6f" x="742.578125"/>
     <use xlink:href="#DejaVuSans-Bold-66" x="811.279297"/>
     <use xlink:href="#DejaVuSans-Bold-20" x="854.785156"/>
     <use xlink:href="#DejaVuSans-Bold-73" x="889.599609"/>
     <use xlink:href="#DejaVuSans-Bold-74" x="949.121094"/>
     <use xlink:href="#DejaVuSans-Bold-61" x="996.923828"/>
     <use xlink:href="#DejaVuSans-Bold-74" x="1064.404297"/>
     <use xlink:href="#DejaVuSans-Bold-75" x="1112.207031"/>
     <use xlink:href="#DejaVuSans-Bold-73" x="1183.398438"/>
    </g>
   </g>
  </g>
  <g id="axes_2">
   <g id="patch_9">
    <path d="M 414.974028 388.6 
L 697.843472 388.6 
L 697.843472 61.44 
L 414.974028 61.44 
z
" style="fill: #ffffff"/>
   </g>
   <g id="patch_10">
    <path d="M 457.404444 388.6 
L 513.978333 388.6 
L 513.978333 190.425906 
L 457.404444 190.425906 
z
" clip-path="url(#p1b3e3945de)" style="fill: #5a948a"/>
   </g>
   <g id="patch_11">
    <path d="M 598.839167 388.6 
L 655.413056 388.6 
L 655.413056 289.355912 
L 598.839167 289.355912 
z
" clip-path="url(#p1b3e3945de)" style="fill: #2b667c"/>
   </g>
   <g id="matplotlib.axis_3">
    <g id="xtick_3">
     <g id="line2d_11">
      <g>
       <use xlink:href="#mf0a952b56b" x="485.691389" y="388.6" style="stroke: #000000; stroke-width: 0.8"/>
      </g>
     </g>
     <g id="text_14">
      <!-- 0 -->
      <g transform="translate(482.510139 403.198438) scale(0.1 -0.1)">
       <use xlink:href="#DejaVuSans-30"/>
      </g>
     </g>
    </g>
    <g id="xtick_4">
     <g id="line2d_12">
      <g>
       <use xlink:href="#mf0a952b56b" x="627.126111" y="388.6" style="stroke: #000000; stroke-width: 0.8"/>
      </g>
     </g>
     <g id="text_15">
      <!-- 1 -->
      <g transform="translate(623.944861 403.198438) scale(0.1 -0.1)">
       <use xlink:href="#DejaVuSans-31"/>
      </g>
     </g>
    </g>
    <g id="text_16">
     <!-- high_interest_rate -->
     <g transform="translate(505.098594 416.876562) scale(0.1 -0.1)">
      <defs>
       <path id="DejaVuSans-Bold-68" d="M 4056 2131 
L 4056 0 
L 2931 0 
L 2931 347 
L 2931 1625 
Q 2931 2084 2911 2256 
Q 2891 2428 2841 2509 
Q 2775 2619 2662 2680 
Q 2550 2741 2406 2741 
Q 2056 2741 1856 2470 
Q 1656 2200 1656 1722 
L 1656 0 
L 538 0 
L 538 4863 
L 1656 4863 
L 1656 2988 
Q 1909 3294 2193 3439 
Q 2478 3584 2822 3584 
Q 3428 3584 3742 3212 
Q 4056 2841 4056 2131 
z
" transform="scale(0.015625)"/>
       <path id="DejaVuSans-Bold-67" d="M 2919 594 
Q 2688 288 2409 144 
Q 2131 0 1766 0 
Q 1125 0 706 504 
Q 288 1009 288 1791 
Q 288 2575 706 3076 
Q 1125 3578 1766 3578 
Q 2131 3578 2409 3434 
Q 2688 3291 2919 2981 
L 2919 3500 
L 4044 3500 
L 4044 353 
Q 4044 -491 3511 -936 
Q 2978 -1381 1966 -1381 
Q 1638 -1381 1331 -1331 
Q 1025 -1281 716 -1178 
L 716 -306 
Q 1009 -475 1290 -558 
Q 1572 -641 1856 -641 
Q 2406 -641 2662 -400 
Q 2919 -159 2919 353 
L 2919 594 
z
M 2181 2772 
Q 1834 2772 1640 2515 
Q 1447 2259 1447 1791 
Q 1447 1309 1634 1061 
Q 1822 813 2181 813 
Q 2531 813 2725 1069 
Q 2919 1325 2919 1791 
Q 2919 2259 2725 2515 
Q 2531 2772 2181 2772 
z
" transform="scale(0.015625)"/>
      </defs>
      <use xlink:href="#DejaVuSans-Bold-68"/>
      <use xlink:href="#DejaVuSans-Bold-69" x="71.191406"/>
      <use xlink:href="#DejaVuSans-Bold-67" x="105.46875"/>
      <use xlink:href="#DejaVuSans-Bold-68" x="177.050781"/>
      <use xlink:href="#DejaVuSans-Bold-5f" x="248.242188"/>
      <use xlink:href="#DejaVuSans-Bold-69" x="298.242188"/>
      <use xlink:href="#DejaVuSans-Bold-6e" x="332.519531"/>
      <use xlink:href="#DejaVuSans-Bold-74" x="403.710938"/>
      <use xlink:href="#DejaVuSans-Bold-65" x="451.513672"/>
      <use xlink:href="#DejaVuSans-Bold-72" x="519.335938"/>
      <use xlink:href="#DejaVuSans-Bold-65" x="568.652344"/>
      <use xlink:href="#DejaVuSans-Bold-73" x="636.474609"/>
      <use xlink:href="#DejaVuSans-Bold-74" x="695.996094"/>
      <use xlink:href="#DejaVuSans-Bold-5f" x="743.798828"/>
      <use xlink:href="#DejaVuSans-Bold-72" x="793.798828"/>
      <use xlink:href="#DejaVuSans-Bold-61" x="843.115234"/>
      <use xlink:href="#DejaVuSans-Bold-74" x="910.595703"/>
      <use xlink:href="#DejaVuSans-Bold-65" x="958.398438"/>
     </g>
    </g>
   </g>
   <g id="matplotlib.axis_4">
    <g id="ytick_7">
     <g id="line2d_13">
      <g>
       <use xlink:href="#m7f5fab5d85" x="414.974028" y="388.6" style="stroke: #000000; stroke-width: 0.8"/>
      </g>
     </g>
     <g id="text_17">
      <!-- 0 -->
      <g transform="translate(401.611528 392.399219) scale(0.1 -0.1)">
       <use xlink:href="#DejaVuSans-30"/>
      </g>
     </g>
    </g>
    <g id="ytick_8">
     <g id="line2d_14">
      <g>
       <use xlink:href="#m7f5fab5d85" x="414.974028" y="329.116364" style="stroke: #000000; stroke-width: 0.8"/>
      </g>
     </g>
     <g id="text_18">
      <!-- 20 -->
      <g transform="translate(395.249028 332.915582) scale(0.1 -0.1)">
       <use xlink:href="#DejaVuSans-32"/>
       <use xlink:href="#DejaVuSans-30" x="63.623047"/>
      </g>
     </g>
    </g>
    <g id="ytick_9">
     <g id="line2d_15">
      <g>
       <use xlink:href="#m7f5fab5d85" x="414.974028" y="269.632727" style="stroke: #000000; stroke-width: 0.8"/>
      </g>
     </g>
     <g id="text_19">
      <!-- 40 -->
      <g transform="translate(395.249028 273.431946) scale(0.1 -0.1)">
       <use xlink:href="#DejaVuSans-34"/>
       <use xlink:href="#DejaVuSans-30" x="63.623047"/>
      </g>
     </g>
    </g>
    <g id="ytick_10">
     <g id="line2d_16">
      <g>
       <use xlink:href="#m7f5fab5d85" x="414.974028" y="210.149091" style="stroke: #000000; stroke-width: 0.8"/>
      </g>
     </g>
     <g id="text_20">
      <!-- 60 -->
      <g transform="translate(395.249028 213.94831) scale(0.1 -0.1)">
       <use xlink:href="#DejaVuSans-36"/>
       <use xlink:href="#DejaVuSans-30" x="63.623047"/>
      </g>
     </g>
    </g>
    <g id="ytick_11">
     <g id="line2d_17">
      <g>
       <use xlink:href="#m7f5fab5d85" x="414.974028" y="150.665455" style="stroke: #000000; stroke-width: 0.8"/>
      </g>
     </g>
     <g id="text_21">
      <!-- 80 -->
      <g transform="translate(395.249028 154.464673) scale(0.1 -0.1)">
       <use xlink:href="#DejaVuSans-38"/>
       <use xlink:href="#DejaVuSans-30" x="63.623047"/>
      </g>
     </g>
    </g>
    <g id="ytick_12">
     <g id="line2d_18">
      <g>
       <use xlink:href="#m7f5fab5d85" x="414.974028" y="91.181818" style="stroke: #000000; stroke-width: 0.8"/>
      </g>
     </g>
     <g id="text_22">
      <!-- 100 -->
      <g transform="translate(388.886528 94.981037) scale(0.1 -0.1)">
       <use xlink:href="#DejaVuSans-31"/>
       <use xlink:href="#DejaVuSans-30" x="63.623047"/>
       <use xlink:href="#DejaVuSans-30" x="127.246094"/>
      </g>
     </g>
    </g>
    <g id="text_23">
     <!-- frequency_pct -->
     <g transform="translate(382.528715 264.797344) rotate(-90) scale(0.1 -0.1)">
      <use xlink:href="#DejaVuSans-Bold-66"/>
      <use xlink:href="#DejaVuSans-Bold-72" x="43.505859"/>
      <use xlink:href="#DejaVuSans-Bold-65" x="92.822266"/>
      <use xlink:href="#DejaVuSans-Bold-71" x="160.644531"/>
      <use xlink:href="#DejaVuSans-Bold-75" x="232.226562"/>
      <use xlink:href="#DejaVuSans-Bold-65" x="303.417969"/>
      <use xlink:href="#DejaVuSans-Bold-6e" x="371.240234"/>
      <use xlink:href="#DejaVuSans-Bold-63" x="442.431641"/>
      <use xlink:href="#DejaVuSans-Bold-79" x="501.708984"/>
      <use xlink:href="#DejaVuSans-Bold-5f" x="566.894531"/>
      <use xlink:href="#DejaVuSans-Bold-70" x="616.894531"/>
      <use xlink:href="#DejaVuSans-Bold-63" x="688.476562"/>
      <use xlink:href="#DejaVuSans-Bold-74" x="747.753906"/>
     </g>
    </g>
   </g>
   <g id="line2d_19">
    <path clip-path="url(#p1b3e3945de)" style="fill: none; stroke: #424242; stroke-width: 2.25; stroke-linecap: square"/>
   </g>
   <g id="line2d_20">
    <path clip-path="url(#p1b3e3945de)" style="fill: none; stroke: #424242; stroke-width: 2.25; stroke-linecap: square"/>
   </g>
   <g id="patch_12">
    <path d="M 414.974028 388.6 
L 414.974028 61.44 
" style="fill: none; stroke: #000000; stroke-width: 0.8; stroke-linejoin: miter; stroke-linecap: square"/>
   </g>
   <g id="patch_13">
    <path d="M 697.843472 388.6 
L 697.843472 61.44 
" style="fill: none; stroke: #000000; stroke-width: 0.8; stroke-linejoin: miter; stroke-linecap: square"/>
   </g>
   <g id="patch_14">
    <path d="M 414.974028 388.6 
L 697.843472 388.6 
" style="fill: none; stroke: #000000; stroke-width: 0.8; stroke-linejoin: miter; stroke-linecap: square"/>
   </g>
   <g id="patch_15">
    <path d="M 414.974028 61.44 
L 697.843472 61.44 
" style="fill: none; stroke: #000000; stroke-width: 0.8; stroke-linejoin: miter; stroke-linecap: square"/>
   </g>
   <g id="text_24">
    <!-- 66.63% -->
    <g transform="translate(464.866389 188.346219) scale(0.1 -0.1)">
     <use xlink:href="#DejaVuSans-Bold-36"/>
     <use xlink:href="#DejaVuSans-Bold-36" x="69.580078"/>
     <use xlink:href="#DejaVuSans-Bold-2e" x="139.160156"/>
     <use xlink:href="#DejaVuSans-Bold-36" x="177.148438"/>
     <use xlink:href="#DejaVuSans-Bold-33" x="246.728516"/>
     <use xlink:href="#DejaVuSans-Bold-25" x="316.308594"/>
    </g>
   </g>
   <g id="text_25">
    <!-- 33.37% -->
    <g transform="translate(606.301111 287.276224) scale(0.1 -0.1)">
     <use xlink:href="#DejaVuSans-Bold-33"/>
     <use xlink:href="#DejaVuSans-Bold-33" x="69.580078"/>
     <use xlink:href="#DejaVuSans-Bold-2e" x="139.160156"/>
     <use xlink:href="#DejaVuSans-Bold-33" x="177.148438"/>
     <use xlink:href="#DejaVuSans-Bold-37" x="246.728516"/>
     <use xlink:href="#DejaVuSans-Bold-25" x="316.308594"/>
    </g>
   </g>
   <g id="text_26">
    <!--  Distribution of high_interest_rate -->
    <g transform="translate(441.461875 55.44) scale(0.12 -0.12)">
     <use xlink:href="#DejaVuSans-Bold-20"/>
     <use xlink:href="#DejaVuSans-Bold-44" x="34.814453"/>
     <use xlink:href="#DejaVuSans-Bold-69" x="117.822266"/>
     <use xlink:href="#DejaVuSans-Bold-73" x="152.099609"/>
     <use xlink:href="#DejaVuSans-Bold-74" x="211.621094"/>
     <use xlink:href="#DejaVuSans-Bold-72" x="259.423828"/>
     <use xlink:href="#DejaVuSans-Bold-69" x="308.740234"/>
     <use xlink:href="#DejaVuSans-Bold-62" x="343.017578"/>
     <use xlink:href="#DejaVuSans-Bold-75" x="414.599609"/>
     <use xlink:href="#DejaVuSans-Bold-74" x="485.791016"/>
     <use xlink:href="#DejaVuSans-Bold-69" x="533.59375"/>
     <use xlink:href="#DejaVuSans-Bold-6f" x="567.871094"/>
     <use xlink:href="#DejaVuSans-Bold-6e" x="636.572266"/>
     <use xlink:href="#DejaVuSans-Bold-20" x="707.763672"/>
     <use xlink:href="#DejaVuSans-Bold-6f" x="742.578125"/>
     <use xlink:href="#DejaVuSans-Bold-66" x="811.279297"/>
     <use xlink:href="#DejaVuSans-Bold-20" x="854.785156"/>
     <use xlink:href="#DejaVuSans-Bold-68" x="889.599609"/>
     <use xlink:href="#DejaVuSans-Bold-69" x="960.791016"/>
     <use xlink:href="#DejaVuSans-Bold-67" x="995.068359"/>
     <use xlink:href="#DejaVuSans-Bold-68" x="1066.650391"/>
     <use xlink:href="#DejaVuSans-Bold-5f" x="1137.841797"/>
     <use xlink:href="#DejaVuSans-Bold-69" x="1187.841797"/>
     <use xlink:href="#DejaVuSans-Bold-6e" x="1222.119141"/>
     <use xlink:href="#DejaVuSans-Bold-74" x="1293.310547"/>
     <use xlink:href="#DejaVuSans-Bold-65" x="1341.113281"/>
     <use xlink:href="#DejaVuSans-Bold-72" x="1408.935547"/>
     <use xlink:href="#DejaVuSans-Bold-65" x="1458.251953"/>
     <use xlink:href="#DejaVuSans-Bold-73" x="1526.074219"/>
     <use xlink:href="#DejaVuSans-Bold-74" x="1585.595703"/>
     <use xlink:href="#DejaVuSans-Bold-5f" x="1633.398438"/>
     <use xlink:href="#DejaVuSans-Bold-72" x="1683.398438"/>
     <use xlink:href="#DejaVuSans-Bold-61" x="1732.714844"/>
     <use xlink:href="#DejaVuSans-Bold-74" x="1800.195312"/>
     <use xlink:href="#DejaVuSans-Bold-65" x="1847.998047"/>
    </g>
   </g>
  </g>
  <g id="axes_3">
   <g id="patch_16">
    <path d="M 782.704306 388.6 
L 1065.57375 388.6 
L 1065.57375 61.44 
L 782.704306 61.44 
z
" style="fill: #ffffff"/>
   </g>
   <g id="patch_17">
    <path d="M 825.134722 388.6 
L 881.708611 388.6 
L 881.708611 212.119609 
L 825.134722 212.119609 
z
" clip-path="url(#pbd05cf2bb6)" style="fill: #5a948a"/>
   </g>
   <g id="patch_18">
    <path d="M 966.569444 388.6 
L 1023.143333 388.6 
L 1023.143333 267.662209 
L 966.569444 267.662209 
z
" clip-path="url(#pbd05cf2bb6)" style="fill: #2b667c"/>
   </g>
   <g id="matplotlib.axis_5">
    <g id="xtick_5">
     <g id="line2d_21">
      <g>
       <use xlink:href="#mf0a952b56b" x="853.421667" y="388.6" style="stroke: #000000; stroke-width: 0.8"/>
      </g>
     </g>
     <g id="text_27">
      <!-- 0 -->
      <g transform="translate(850.240417 403.198438) scale(0.1 -0.1)">
       <use xlink:href="#DejaVuSans-30"/>
      </g>
     </g>
    </g>
    <g id="xtick_6">
     <g id="line2d_22">
      <g>
       <use xlink:href="#mf0a952b56b" x="994.856389" y="388.6" style="stroke: #000000; stroke-width: 0.8"/>
      </g>
     </g>
     <g id="text_28">
      <!-- 1 -->
      <g transform="translate(991.675139 403.198438) scale(0.1 -0.1)">
       <use xlink:href="#DejaVuSans-31"/>
      </g>
     </g>
    </g>
    <g id="text_29">
     <!-- senior_age -->
     <g transform="translate(893.75309 416.876562) scale(0.1 -0.1)">
      <use xlink:href="#DejaVuSans-Bold-73"/>
      <use xlink:href="#DejaVuSans-Bold-65" x="59.521484"/>
      <use xlink:href="#DejaVuSans-Bold-6e" x="127.34375"/>
      <use xlink:href="#DejaVuSans-Bold-69" x="198.535156"/>
      <use xlink:href="#DejaVuSans-Bold-6f" x="232.8125"/>
      <use xlink:href="#DejaVuSans-Bold-72" x="301.513672"/>
      <use xlink:href="#DejaVuSans-Bold-5f" x="350.830078"/>
      <use xlink:href="#DejaVuSans-Bold-61" x="400.830078"/>
      <use xlink:href="#DejaVuSans-Bold-67" x="468.310547"/>
      <use xlink:href="#DejaVuSans-Bold-65" x="539.892578"/>
     </g>
    </g>
   </g>
   <g id="matplotlib.axis_6">
    <g id="ytick_13">
     <g id="line2d_23">
      <g>
       <use xlink:href="#m7f5fab5d85" x="782.704306" y="388.6" style="stroke: #000000; stroke-width: 0.8"/>
      </g>
     </g>
     <g id="text_30">
      <!-- 0 -->
      <g transform="translate(769.341806 392.399219) scale(0.1 -0.1)">
       <use xlink:href="#DejaVuSans-30"/>
      </g>
     </g>
    </g>
    <g id="ytick_14">
     <g id="line2d_24">
      <g>
       <use xlink:href="#m7f5fab5d85" x="782.704306" y="329.116364" style="stroke: #000000; stroke-width: 0.8"/>
      </g>
     </g>
     <g id="text_31">
      <!-- 20 -->
      <g transform="translate(762.979306 332.915582) scale(0.1 -0.1)">
       <use xlink:href="#DejaVuSans-32"/>
       <use xlink:href="#DejaVuSans-30" x="63.623047"/>
      </g>
     </g>
    </g>
    <g id="ytick_15">
     <g id="line2d_25">
      <g>
       <use xlink:href="#m7f5fab5d85" x="782.704306" y="269.632727" style="stroke: #000000; stroke-width: 0.8"/>
      </g>
     </g>
     <g id="text_32">
      <!-- 40 -->
      <g transform="translate(762.979306 273.431946) scale(0.1 -0.1)">
       <use xlink:href="#DejaVuSans-34"/>
       <use xlink:href="#DejaVuSans-30" x="63.623047"/>
      </g>
     </g>
    </g>
    <g id="ytick_16">
     <g id="line2d_26">
      <g>
       <use xlink:href="#m7f5fab5d85" x="782.704306" y="210.149091" style="stroke: #000000; stroke-width: 0.8"/>
      </g>
     </g>
     <g id="text_33">
      <!-- 60 -->
      <g transform="translate(762.979306 213.94831) scale(0.1 -0.1)">
       <use xlink:href="#DejaVuSans-36"/>
       <use xlink:href="#DejaVuSans-30" x="63.623047"/>
      </g>
     </g>
    </g>
    <g id="ytick_17">
     <g id="line2d_27">
      <g>
       <use xlink:href="#m7f5fab5d85" x="782.704306" y="150.665455" style="stroke: #000000; stroke-width: 0.8"/>
      </g>
     </g>
     <g id="text_34">
      <!-- 80 -->
      <g transform="translate(762.979306 154.464673) scale(0.1 -0.1)">
       <use xlink:href="#DejaVuSans-38"/>
       <use xlink:href="#DejaVuSans-30" x="63.623047"/>
      </g>
     </g>
    </g>
    <g id="ytick_18">
     <g id="line2d_28">
      <g>
       <use xlink:href="#m7f5fab5d85" x="782.704306" y="91.181818" style="stroke: #000000; stroke-width: 0.8"/>
      </g>
     </g>
     <g id="text_35">
      <!-- 100 -->
      <g transform="translate(756.616806 94.981037) scale(0.1 -0.1)">
       <use xlink:href="#DejaVuSans-31"/>
       <use xlink:href="#DejaVuSans-30" x="63.623047"/>
       <use xlink:href="#DejaVuSans-30" x="127.246094"/>
      </g>
     </g>
    </g>
    <g id="text_36">
     <!-- frequency_pct -->
     <g transform="translate(750.258993 264.797344) rotate(-90) scale(0.1 -0.1)">
      <use xlink:href="#DejaVuSans-Bold-66"/>
      <use xlink:href="#DejaVuSans-Bold-72" x="43.505859"/>
      <use xlink:href="#DejaVuSans-Bold-65" x="92.822266"/>
      <use xlink:href="#DejaVuSans-Bold-71" x="160.644531"/>
      <use xlink:href="#DejaVuSans-Bold-75" x="232.226562"/>
      <use xlink:href="#DejaVuSans-Bold-65" x="303.417969"/>
      <use xlink:href="#DejaVuSans-Bold-6e" x="371.240234"/>
      <use xlink:href="#DejaVuSans-Bold-63" x="442.431641"/>
      <use xlink:href="#DejaVuSans-Bold-79" x="501.708984"/>
      <use xlink:href="#DejaVuSans-Bold-5f" x="566.894531"/>
      <use xlink:href="#DejaVuSans-Bold-70" x="616.894531"/>
      <use xlink:href="#DejaVuSans-Bold-63" x="688.476562"/>
      <use xlink:href="#DejaVuSans-Bold-74" x="747.753906"/>
     </g>
    </g>
   </g>
   <g id="line2d_29">
    <path clip-path="url(#pbd05cf2bb6)" style="fill: none; stroke: #424242; stroke-width: 2.25; stroke-linecap: square"/>
   </g>
   <g id="line2d_30">
    <path clip-path="url(#pbd05cf2bb6)" style="fill: none; stroke: #424242; stroke-width: 2.25; stroke-linecap: square"/>
   </g>
   <g id="patch_19">
    <path d="M 782.704306 388.6 
L 782.704306 61.44 
" style="fill: none; stroke: #000000; stroke-width: 0.8; stroke-linejoin: miter; stroke-linecap: square"/>
   </g>
   <g id="patch_20">
    <path d="M 1065.57375 388.6 
L 1065.57375 61.44 
" style="fill: none; stroke: #000000; stroke-width: 0.8; stroke-linejoin: miter; stroke-linecap: square"/>
   </g>
   <g id="patch_21">
    <path d="M 782.704306 388.6 
L 1065.57375 388.6 
" style="fill: none; stroke: #000000; stroke-width: 0.8; stroke-linejoin: miter; stroke-linecap: square"/>
   </g>
   <g id="patch_22">
    <path d="M 782.704306 61.44 
L 1065.57375 61.44 
" style="fill: none; stroke: #000000; stroke-width: 0.8; stroke-linejoin: miter; stroke-linecap: square"/>
   </g>
   <g id="text_37">
    <!-- 59.34% -->
    <g transform="translate(832.596667 210.039921) scale(0.1 -0.1)">
     <defs>
      <path id="DejaVuSans-Bold-39" d="M 641 103 
L 641 966 
Q 928 831 1190 764 
Q 1453 697 1709 697 
Q 2247 697 2547 995 
Q 2847 1294 2900 1881 
Q 2688 1725 2447 1647 
Q 2206 1569 1925 1569 
Q 1209 1569 770 1986 
Q 331 2403 331 3084 
Q 331 3838 820 4291 
Q 1309 4744 2131 4744 
Q 3044 4744 3544 4128 
Q 4044 3513 4044 2388 
Q 4044 1231 3459 570 
Q 2875 -91 1856 -91 
Q 1528 -91 1228 -42 
Q 928 6 641 103 
z
M 2125 2350 
Q 2441 2350 2600 2554 
Q 2759 2759 2759 3169 
Q 2759 3575 2600 3781 
Q 2441 3988 2125 3988 
Q 1809 3988 1650 3781 
Q 1491 3575 1491 3169 
Q 1491 2759 1650 2554 
Q 1809 2350 2125 2350 
z
" transform="scale(0.015625)"/>
     </defs>
     <use xlink:href="#DejaVuSans-Bold-35"/>
     <use xlink:href="#DejaVuSans-Bold-39" x="69.580078"/>
     <use xlink:href="#DejaVuSans-Bold-2e" x="139.160156"/>
     <use xlink:href="#DejaVuSans-Bold-33" x="177.148438"/>
     <use xlink:href="#DejaVuSans-Bold-34" x="246.728516"/>
     <use xlink:href="#DejaVuSans-Bold-25" x="316.308594"/>
    </g>
   </g>
   <g id="text_38">
    <!-- 40.66% -->
    <g transform="translate(974.031389 265.582522) scale(0.1 -0.1)">
     <defs>
      <path id="DejaVuSans-Bold-30" d="M 2944 2338 
Q 2944 3213 2780 3570 
Q 2616 3928 2228 3928 
Q 1841 3928 1675 3570 
Q 1509 3213 1509 2338 
Q 1509 1453 1675 1090 
Q 1841 728 2228 728 
Q 2613 728 2778 1090 
Q 2944 1453 2944 2338 
z
M 4147 2328 
Q 4147 1169 3647 539 
Q 3147 -91 2228 -91 
Q 1306 -91 806 539 
Q 306 1169 306 2328 
Q 306 3491 806 4120 
Q 1306 4750 2228 4750 
Q 3147 4750 3647 4120 
Q 4147 3491 4147 2328 
z
" transform="scale(0.015625)"/>
     </defs>
     <use xlink:href="#DejaVuSans-Bold-34"/>
     <use xlink:href="#DejaVuSans-Bold-30" x="69.580078"/>
     <use xlink:href="#DejaVuSans-Bold-2e" x="139.160156"/>
     <use xlink:href="#DejaVuSans-Bold-36" x="177.148438"/>
     <use xlink:href="#DejaVuSans-Bold-36" x="246.728516"/>
     <use xlink:href="#DejaVuSans-Bold-25" x="316.308594"/>
    </g>
   </g>
   <g id="text_39">
    <!--  Distribution of senior_age -->
    <g transform="translate(834.301215 55.44) scale(0.12 -0.12)">
     <use xlink:href="#DejaVuSans-Bold-20"/>
     <use xlink:href="#DejaVuSans-Bold-44" x="34.814453"/>
     <use xlink:href="#DejaVuSans-Bold-69" x="117.822266"/>
     <use xlink:href="#DejaVuSans-Bold-73" x="152.099609"/>
     <use xlink:href="#DejaVuSans-Bold-74" x="211.621094"/>
     <use xlink:href="#DejaVuSans-Bold-72" x="259.423828"/>
     <use xlink:href="#DejaVuSans-Bold-69" x="308.740234"/>
     <use xlink:href="#DejaVuSans-Bold-62" x="343.017578"/>
     <use xlink:href="#DejaVuSans-Bold-75" x="414.599609"/>
     <use xlink:href="#DejaVuSans-Bold-74" x="485.791016"/>
     <use xlink:href="#DejaVuSans-Bold-69" x="533.59375"/>
     <use xlink:href="#DejaVuSans-Bold-6f" x="567.871094"/>
     <use xlink:href="#DejaVuSans-Bold-6e" x="636.572266"/>
     <use xlink:href="#DejaVuSans-Bold-20" x="707.763672"/>
     <use xlink:href="#DejaVuSans-Bold-6f" x="742.578125"/>
     <use xlink:href="#DejaVuSans-Bold-66" x="811.279297"/>
     <use xlink:href="#DejaVuSans-Bold-20" x="854.785156"/>
     <use xlink:href="#DejaVuSans-Bold-73" x="889.599609"/>
     <use xlink:href="#DejaVuSans-Bold-65" x="949.121094"/>
     <use xlink:href="#DejaVuSans-Bold-6e" x="1016.943359"/>
     <use xlink:href="#DejaVuSans-Bold-69" x="1088.134766"/>
     <use xlink:href="#DejaVuSans-Bold-6f" x="1122.412109"/>
     <use xlink:href="#DejaVuSans-Bold-72" x="1191.113281"/>
     <use xlink:href="#DejaVuSans-Bold-5f" x="1240.429688"/>
     <use xlink:href="#DejaVuSans-Bold-61" x="1290.429688"/>
     <use xlink:href="#DejaVuSans-Bold-67" x="1357.910156"/>
     <use xlink:href="#DejaVuSans-Bold-65" x="1429.492188"/>
    </g>
   </g>
  </g>
  <g id="text_40">
   <!-- Distribution of Binary Numerical Features -->
   <g transform="translate(347.98375 19.3575) scale(0.16 -0.16)">
    <defs>
     <path id="DejaVuSans-Bold-42" d="M 2456 2859 
Q 2741 2859 2887 2984 
Q 3034 3109 3034 3353 
Q 3034 3594 2887 3720 
Q 2741 3847 2456 3847 
L 1791 3847 
L 1791 2859 
L 2456 2859 
z
M 2497 819 
Q 2859 819 3042 972 
Q 3225 1125 3225 1434 
Q 3225 1738 3044 1889 
Q 2863 2041 2497 2041 
L 1791 2041 
L 1791 819 
L 2497 819 
z
M 3616 2497 
Q 4003 2384 4215 2081 
Q 4428 1778 4428 1338 
Q 4428 663 3972 331 
Q 3516 0 2584 0 
L 588 0 
L 588 4666 
L 2394 4666 
Q 3366 4666 3802 4372 
Q 4238 4078 4238 3431 
Q 4238 3091 4078 2852 
Q 3919 2613 3616 2497 
z
" transform="scale(0.015625)"/>
     <path id="DejaVuSans-Bold-4e" d="M 588 4666 
L 1931 4666 
L 3628 1466 
L 3628 4666 
L 4769 4666 
L 4769 0 
L 3425 0 
L 1728 3200 
L 1728 0 
L 588 0 
L 588 4666 
z
" transform="scale(0.015625)"/>
     <path id="DejaVuSans-Bold-6d" d="M 3781 2919 
Q 3994 3244 4286 3414 
Q 4578 3584 4928 3584 
Q 5531 3584 5847 3212 
Q 6163 2841 6163 2131 
L 6163 0 
L 5038 0 
L 5038 1825 
Q 5041 1866 5042 1909 
Q 5044 1953 5044 2034 
Q 5044 2406 4934 2573 
Q 4825 2741 4581 2741 
Q 4263 2741 4089 2478 
Q 3916 2216 3909 1719 
L 3909 0 
L 2784 0 
L 2784 1825 
Q 2784 2406 2684 2573 
Q 2584 2741 2328 2741 
Q 2006 2741 1831 2477 
Q 1656 2213 1656 1722 
L 1656 0 
L 531 0 
L 531 3500 
L 1656 3500 
L 1656 2988 
Q 1863 3284 2130 3434 
Q 2397 3584 2719 3584 
Q 3081 3584 3359 3409 
Q 3638 3234 3781 2919 
z
" transform="scale(0.015625)"/>
     <path id="DejaVuSans-Bold-6c" d="M 538 4863 
L 1656 4863 
L 1656 0 
L 538 0 
L 538 4863 
z
" transform="scale(0.015625)"/>
     <path id="DejaVuSans-Bold-46" d="M 588 4666 
L 3834 4666 
L 3834 3756 
L 1791 3756 
L 1791 2888 
L 3713 2888 
L 3713 1978 
L 1791 1978 
L 1791 0 
L 588 0 
L 588 4666 
z
" transform="scale(0.015625)"/>
    </defs>
    <use xlink:href="#DejaVuSans-Bold-44"/>
    <use xlink:href="#DejaVuSans-Bold-69" x="83.007812"/>
    <use xlink:href="#DejaVuSans-Bold-73" x="117.285156"/>
    <use xlink:href="#DejaVuSans-Bold-74" x="176.806641"/>
    <use xlink:href="#DejaVuSans-Bold-72" x="224.609375"/>
    <use xlink:href="#DejaVuSans-Bold-69" x="273.925781"/>
    <use xlink:href="#DejaVuSans-Bold-62" x="308.203125"/>
    <use xlink:href="#DejaVuSans-Bold-75" x="379.785156"/>
    <use xlink:href="#DejaVuSans-Bold-74" x="450.976562"/>
    <use xlink:href="#DejaVuSans-Bold-69" x="498.779297"/>
    <use xlink:href="#DejaVuSans-Bold-6f" x="533.056641"/>
    <use xlink:href="#DejaVuSans-Bold-6e" x="601.757812"/>
    <use xlink:href="#DejaVuSans-Bold-20" x="672.949219"/>
    <use xlink:href="#DejaVuSans-Bold-6f" x="707.763672"/>
    <use xlink:href="#DejaVuSans-Bold-66" x="776.464844"/>
    <use xlink:href="#DejaVuSans-Bold-20" x="819.970703"/>
    <use xlink:href="#DejaVuSans-Bold-42" x="854.785156"/>
    <use xlink:href="#DejaVuSans-Bold-69" x="931.005859"/>
    <use xlink:href="#DejaVuSans-Bold-6e" x="965.283203"/>
    <use xlink:href="#DejaVuSans-Bold-61" x="1036.474609"/>
    <use xlink:href="#DejaVuSans-Bold-72" x="1103.955078"/>
    <use xlink:href="#DejaVuSans-Bold-79" x="1153.271484"/>
    <use xlink:href="#DejaVuSans-Bold-20" x="1218.457031"/>
    <use xlink:href="#DejaVuSans-Bold-4e" x="1253.271484"/>
    <use xlink:href="#DejaVuSans-Bold-75" x="1336.962891"/>
    <use xlink:href="#DejaVuSans-Bold-6d" x="1408.154297"/>
    <use xlink:href="#DejaVuSans-Bold-65" x="1512.353516"/>
    <use xlink:href="#DejaVuSans-Bold-72" x="1580.175781"/>
    <use xlink:href="#DejaVuSans-Bold-69" x="1629.492188"/>
    <use xlink:href="#DejaVuSans-Bold-63" x="1663.769531"/>
    <use xlink:href="#DejaVuSans-Bold-61" x="1723.046875"/>
    <use xlink:href="#DejaVuSans-Bold-6c" x="1790.527344"/>
    <use xlink:href="#DejaVuSans-Bold-20" x="1824.804688"/>
    <use xlink:href="#DejaVuSans-Bold-46" x="1859.619141"/>
    <use xlink:href="#DejaVuSans-Bold-65" x="1923.929688"/>
    <use xlink:href="#DejaVuSans-Bold-61" x="1991.751953"/>
    <use xlink:href="#DejaVuSans-Bold-74" x="2059.232422"/>
    <use xlink:href="#DejaVuSans-Bold-75" x="2107.035156"/>
    <use xlink:href="#DejaVuSans-Bold-72" x="2178.226562"/>
    <use xlink:href="#DejaVuSans-Bold-65" x="2227.542969"/>
    <use xlink:href="#DejaVuSans-Bold-73" x="2295.365234"/>
   </g>
  </g>
 </g>
 <defs>
  <clipPath id="p5f6cead8ed">
   <rect x="47.24375" y="61.44" width="282.869444" height="327.16"/>
  </clipPath>
  <clipPath id="p1b3e3945de">
   <rect x="414.974028" y="61.44" width="282.869444" height="327.16"/>
  </clipPath>
  <clipPath id="pbd05cf2bb6">
   <rect x="782.704306" y="61.44" width="282.869444" height="327.16"/>
  </clipPath>
 </defs>
</svg>
