<?xml version="1.0" encoding="utf-8" standalone="no"?>
<!DOCTYPE svg PUBLIC "-//W3C//DTD SVG 1.1//EN"
  "http://www.w3.org/Graphics/SVG/1.1/DTD/svg11.dtd">
<svg xmlns:xlink="http://www.w3.org/1999/xlink" width="1072.683125pt" height="426.434375pt" viewBox="0 0 1072.683125 426.434375" xmlns="http://www.w3.org/2000/svg" version="1.1">
 <metadata>
  <rdf:RDF xmlns:dc="http://purl.org/dc/elements/1.1/" xmlns:cc="http://creativecommons.org/ns#" xmlns:rdf="http://www.w3.org/1999/02/22-rdf-syntax-ns#">
   <cc:Work>
    <dc:type rdf:resource="http://purl.org/dc/dcmitype/StillImage"/>
    <dc:date>2026-01-19T23:01:07.206497</dc:date>
    <dc:format>image/svg+xml</dc:format>
    <dc:creator>
     <cc:Agent>
      <dc:title>Matplotlib v3.9.2, https://matplotlib.org/</dc:title>
     </cc:Agent>
    </dc:creator>
   </cc:Work>
  </rdf:RDF>
 </metadata>
 <defs>
  <style type="text/css">*{stroke-linejoin: round; stroke-linecap: butt}</style>
 </defs>
 <g id="figure_1">
  <g id="patch_1">
   <path d="M 0 426.434375 
L 1072.683125 426.434375 
L 1072.683125 0 
L 0 0 
z
" style="fill: #ffffff"/>
  </g>
  <g id="axes_1">
   <g id="patch_2">
    <path d="M 66.053125 388.6 
L 352.683125 388.6 
L 352.683125 61.44 
L 66.053125 61.44 
z
" style="fill: #ffffff"/>
   </g>
   <g id="patch_3">
    <path d="M 101.881875 388.6 
L 173.539375 388.6 
L 173.539375 91.181818 
L 101.881875 91.181818 
z
" clip-path="url(#pbfb095244f)" style="fill: #84b293"/>
   </g>
   <g id="patch_4">
    <path d="M 245.196875 388.6 
L 316.854375 388.6 
L 316.854375 291.331344 
L 245.196875 291.331344 
z
" clip-path="url(#pbfb095244f)" style="fill: #84b293"/>
   </g>
   <g id="matplotlib.axis_1">
    <g id="xtick_1">
     <g id="line2d_1">
      <defs>
       <path id="m4f609f02f7" d="M 0 0 
L 0 3.5 
" style="stroke: #000000; stroke-width: 0.8"/>
      </defs>
      <g>
       <use xlink:href="#m4f609f02f7" x="137.710625" y="388.6" style="stroke: #000000; stroke-width: 0.8"/>
      </g>
     </g>
     <g id="text_1">
      <!-- 0 -->
      <g transform="translate(134.529375 403.198438) scale(0.1 -0.1)">
       <defs>
        <path id="DejaVuSans-30" d="M 2034 4250 
Q 1547 4250 1301 3770 
Q 1056 3291 1056 2328 
Q 1056 1369 1301 889 
Q 1547 409 2034 409 
Q 2525 409 2770 889 
Q 3016 1369 3016 2328 
Q 3016 3291 2770 3770 
Q 2525 4250 2034 4250 
z
M 2034 4750 
Q 2819 4750 3233 4129 
Q 3647 3509 3647 2328 
Q 3647 1150 3233 529 
Q 2819 -91 2034 -91 
Q 1250 -91 836 529 
Q 422 1150 422 2328 
Q 422 3509 836 4129 
Q 1250 4750 2034 4750 
z
" transform="scale(0.015625)"/>
       </defs>
       <use xlink:href="#DejaVuSans-30"/>
      </g>
     </g>
    </g>
    <g id="xtick_2">
     <g id="line2d_2">
      <g>
       <use xlink:href="#m4f609f02f7" x="281.025625" y="388.6" style="stroke: #000000; stroke-width: 0.8"/>
      </g>
     </g>
     <g id="text_2">
      <!-- 1 -->
      <g transform="translate(277.844375 403.198438) scale(0.1 -0.1)">
       <defs>
        <path id="DejaVuSans-31" d="M 794 531 
L 1825 531 
L 1825 4091 
L 703 3866 
L 703 4441 
L 1819 4666 
L 2450 4666 
L 2450 531 
L 3481 531 
L 3481 0 
L 794 0 
L 794 531 
z
" transform="scale(0.015625)"/>
       </defs>
       <use xlink:href="#DejaVuSans-31"/>
      </g>
     </g>
    </g>
    <g id="text_3">
     <!-- status -->
     <g transform="translate(191.703281 416.876562) scale(0.1 -0.1)">
      <defs>
       <path id="DejaVuSans-Bold-73" d="M 3272 3391 
L 3272 2541 
Q 2913 2691 2578 2766 
Q 2244 2841 1947 2841 
Q 1628 2841 1473 2761 
Q 1319 2681 1319 2516 
Q 1319 2381 1436 2309 
Q 1553 2238 1856 2203 
L 2053 2175 
Q 2913 2066 3209 1816 
Q 3506 1566 3506 1031 
Q 3506 472 3093 190 
Q 2681 -91 1863 -91 
Q 1516 -91 1145 -36 
Q 775 19 384 128 
L 384 978 
Q 719 816 1070 734 
Q 1422 653 1784 653 
Q 2113 653 2278 743 
Q 2444 834 2444 1013 
Q 2444 1163 2330 1236 
Q 2216 1309 1875 1350 
L 1678 1375 
Q 931 1469 631 1722 
Q 331 1975 331 2491 
Q 331 3047 712 3315 
Q 1094 3584 1881 3584 
Q 2191 3584 2531 3537 
Q 2872 3491 3272 3391 
z
" transform="scale(0.015625)"/>
       <path id="DejaVuSans-Bold-74" d="M 1759 4494 
L 1759 3500 
L 2913 3500 
L 2913 2700 
L 1759 2700 
L 1759 1216 
Q 1759 972 1856 886 
Q 1953 800 2241 800 
L 2816 800 
L 2816 0 
L 1856 0 
Q 1194 0 917 276 
Q 641 553 641 1216 
L 641 2700 
L 84 2700 
L 84 3500 
L 641 3500 
L 641 4494 
L 1759 4494 
z
" transform="scale(0.015625)"/>
       <path id="DejaVuSans-Bold-61" d="M 2106 1575 
Q 1756 1575 1579 1456 
Q 1403 1338 1403 1106 
Q 1403 894 1545 773 
Q 1688 653 1941 653 
Q 2256 653 2472 879 
Q 2688 1106 2688 1447 
L 2688 1575 
L 2106 1575 
z
M 3816 1997 
L 3816 0 
L 2688 0 
L 2688 519 
Q 2463 200 2181 54 
Q 1900 -91 1497 -91 
Q 953 -91 614 226 
Q 275 544 275 1050 
Q 275 1666 698 1953 
Q 1122 2241 2028 2241 
L 2688 2241 
L 2688 2328 
Q 2688 2594 2478 2717 
Q 2269 2841 1825 2841 
Q 1466 2841 1156 2769 
Q 847 2697 581 2553 
L 581 3406 
Q 941 3494 1303 3539 
Q 1666 3584 2028 3584 
Q 2975 3584 3395 3211 
Q 3816 2838 3816 1997 
z
" transform="scale(0.015625)"/>
       <path id="DejaVuSans-Bold-75" d="M 500 1363 
L 500 3500 
L 1625 3500 
L 1625 3150 
Q 1625 2866 1622 2436 
Q 1619 2006 1619 1863 
Q 1619 1441 1641 1255 
Q 1663 1069 1716 984 
Q 1784 875 1895 815 
Q 2006 756 2150 756 
Q 2500 756 2700 1025 
Q 2900 1294 2900 1772 
L 2900 3500 
L 4019 3500 
L 4019 0 
L 2900 0 
L 2900 506 
Q 2647 200 2364 54 
Q 2081 -91 1741 -91 
Q 1134 -91 817 281 
Q 500 653 500 1363 
z
" transform="scale(0.015625)"/>
      </defs>
      <use xlink:href="#DejaVuSans-Bold-73"/>
      <use xlink:href="#DejaVuSans-Bold-74" x="59.521484"/>
      <use xlink:href="#DejaVuSans-Bold-61" x="107.324219"/>
      <use xlink:href="#DejaVuSans-Bold-74" x="174.804688"/>
      <use xlink:href="#DejaVuSans-Bold-75" x="222.607422"/>
      <use xlink:href="#DejaVuSans-Bold-73" x="293.798828"/>
     </g>
    </g>
   </g>
   <g id="matplotlib.axis_2">
    <g id="ytick_1">
     <g id="line2d_3">
      <defs>
       <path id="me421b60e24" d="M 0 0 
L -3.5 0 
" style="stroke: #000000; stroke-width: 0.8"/>
      </defs>
      <g>
       <use xlink:href="#me421b60e24" x="66.053125" y="388.6" style="stroke: #000000; stroke-width: 0.8"/>
      </g>
     </g>
     <g id="text_4">
      <!-- 0 -->
      <g transform="translate(52.690625 392.399219) scale(0.1 -0.1)">
       <use xlink:href="#DejaVuSans-30"/>
      </g>
     </g>
    </g>
    <g id="ytick_2">
     <g id="line2d_4">
      <g>
       <use xlink:href="#me421b60e24" x="66.053125" y="335.504307" style="stroke: #000000; stroke-width: 0.8"/>
      </g>
     </g>
     <g id="text_5">
      <!-- 20000 -->
      <g transform="translate(27.240625 339.303525) scale(0.1 -0.1)">
       <defs>
        <path id="DejaVuSans-32" d="M 1228 531 
L 3431 531 
L 3431 0 
L 469 0 
L 469 531 
Q 828 903 1448 1529 
Q 2069 2156 2228 2338 
Q 2531 2678 2651 2914 
Q 2772 3150 2772 3378 
Q 2772 3750 2511 3984 
Q 2250 4219 1831 4219 
Q 1534 4219 1204 4116 
Q 875 4013 500 3803 
L 500 4441 
Q 881 4594 1212 4672 
Q 1544 4750 1819 4750 
Q 2544 4750 2975 4387 
Q 3406 4025 3406 3419 
Q 3406 3131 3298 2873 
Q 3191 2616 2906 2266 
Q 2828 2175 2409 1742 
Q 1991 1309 1228 531 
z
" transform="scale(0.015625)"/>
       </defs>
       <use xlink:href="#DejaVuSans-32"/>
       <use xlink:href="#DejaVuSans-30" x="63.623047"/>
       <use xlink:href="#DejaVuSans-30" x="127.246094"/>
       <use xlink:href="#DejaVuSans-30" x="190.869141"/>
       <use xlink:href="#DejaVuSans-30" x="254.492188"/>
      </g>
     </g>
    </g>
    <g id="ytick_3">
     <g id="line2d_5">
      <g>
       <use xlink:href="#me421b60e24" x="66.053125" y="282.408613" style="stroke: #000000; stroke-width: 0.8"/>
      </g>
     </g>
     <g id="text_6">
      <!-- 40000 -->
      <g transform="translate(27.240625 286.207832) scale(0.1 -0.1)">
       <defs>
        <path id="DejaVuSans-34" d="M 2419 4116 
L 825 1625 
L 2419 1625 
L 2419 4116 
z
M 2253 4666 
L 3047 4666 
L 3047 1625 
L 3713 1625 
L 3713 1100 
L 3047 1100 
L 3047 0 
L 2419 0 
L 2419 1100 
L 313 1100 
L 313 1709 
L 2253 4666 
z
" transform="scale(0.015625)"/>
       </defs>
       <use xlink:href="#DejaVuSans-34"/>
       <use xlink:href="#DejaVuSans-30" x="63.623047"/>
       <use xlink:href="#DejaVuSans-30" x="127.246094"/>
       <use xlink:href="#DejaVuSans-30" x="190.869141"/>
       <use xlink:href="#DejaVuSans-30" x="254.492188"/>
      </g>
     </g>
    </g>
    <g id="ytick_4">
     <g id="line2d_6">
      <g>
       <use xlink:href="#me421b60e24" x="66.053125" y="229.31292" style="stroke: #000000; stroke-width: 0.8"/>
      </g>
     </g>
     <g id="text_7">
      <!-- 60000 -->
      <g transform="translate(27.240625 233.112138) scale(0.1 -0.1)">
       <defs>
        <path id="DejaVuSans-36" d="M 2113 2584 
Q 1688 2584 1439 2293 
Q 1191 2003 1191 1497 
Q 1191 994 1439 701 
Q 1688 409 2113 409 
Q 2538 409 2786 701 
Q 3034 994 3034 1497 
Q 3034 2003 2786 2293 
Q 2538 2584 2113 2584 
z
M 3366 4563 
L 3366 3988 
Q 3128 4100 2886 4159 
Q 2644 4219 2406 4219 
Q 1781 4219 1451 3797 
Q 1122 3375 1075 2522 
Q 1259 2794 1537 2939 
Q 1816 3084 2150 3084 
Q 2853 3084 3261 2657 
Q 3669 2231 3669 1497 
Q 3669 778 3244 343 
Q 2819 -91 2113 -91 
Q 1303 -91 875 529 
Q 447 1150 447 2328 
Q 447 3434 972 4092 
Q 1497 4750 2381 4750 
Q 2619 4750 2861 4703 
Q 3103 4656 3366 4563 
z
" transform="scale(0.015625)"/>
       </defs>
       <use xlink:href="#DejaVuSans-36"/>
       <use xlink:href="#DejaVuSans-30" x="63.623047"/>
       <use xlink:href="#DejaVuSans-30" x="127.246094"/>
       <use xlink:href="#DejaVuSans-30" x="190.869141"/>
       <use xlink:href="#DejaVuSans-30" x="254.492188"/>
      </g>
     </g>
    </g>
    <g id="ytick_5">
     <g id="line2d_7">
      <g>
       <use xlink:href="#me421b60e24" x="66.053125" y="176.217226" style="stroke: #000000; stroke-width: 0.8"/>
      </g>
     </g>
     <g id="text_8">
      <!-- 80000 -->
      <g transform="translate(27.240625 180.016445) scale(0.1 -0.1)">
       <defs>
        <path id="DejaVuSans-38" d="M 2034 2216 
Q 1584 2216 1326 1975 
Q 1069 1734 1069 1313 
Q 1069 891 1326 650 
Q 1584 409 2034 409 
Q 2484 409 2743 651 
Q 3003 894 3003 1313 
Q 3003 1734 2745 1975 
Q 2488 2216 2034 2216 
z
M 1403 2484 
Q 997 2584 770 2862 
Q 544 3141 544 3541 
Q 544 4100 942 4425 
Q 1341 4750 2034 4750 
Q 2731 4750 3128 4425 
Q 3525 4100 3525 3541 
Q 3525 3141 3298 2862 
Q 3072 2584 2669 2484 
Q 3125 2378 3379 2068 
Q 3634 1759 3634 1313 
Q 3634 634 3220 271 
Q 2806 -91 2034 -91 
Q 1263 -91 848 271 
Q 434 634 434 1313 
Q 434 1759 690 2068 
Q 947 2378 1403 2484 
z
M 1172 3481 
Q 1172 3119 1398 2916 
Q 1625 2713 2034 2713 
Q 2441 2713 2670 2916 
Q 2900 3119 2900 3481 
Q 2900 3844 2670 4047 
Q 2441 4250 2034 4250 
Q 1625 4250 1398 4047 
Q 1172 3844 1172 3481 
z
" transform="scale(0.015625)"/>
       </defs>
       <use xlink:href="#DejaVuSans-38"/>
       <use xlink:href="#DejaVuSans-30" x="63.623047"/>
       <use xlink:href="#DejaVuSans-30" x="127.246094"/>
       <use xlink:href="#DejaVuSans-30" x="190.869141"/>
       <use xlink:href="#DejaVuSans-30" x="254.492188"/>
      </g>
     </g>
    </g>
    <g id="ytick_6">
     <g id="line2d_8">
      <g>
       <use xlink:href="#me421b60e24" x="66.053125" y="123.121533" style="stroke: #000000; stroke-width: 0.8"/>
      </g>
     </g>
     <g id="text_9">
      <!-- 100000 -->
      <g transform="translate(20.878125 126.920751) scale(0.1 -0.1)">
       <use xlink:href="#DejaVuSans-31"/>
       <use xlink:href="#DejaVuSans-30" x="63.623047"/>
       <use xlink:href="#DejaVuSans-30" x="127.246094"/>
       <use xlink:href="#DejaVuSans-30" x="190.869141"/>
       <use xlink:href="#DejaVuSans-30" x="254.492188"/>
       <use xlink:href="#DejaVuSans-30" x="318.115234"/>
      </g>
     </g>
    </g>
    <g id="ytick_7">
     <g id="line2d_9">
      <g>
       <use xlink:href="#me421b60e24" x="66.053125" y="70.025839" style="stroke: #000000; stroke-width: 0.8"/>
      </g>
     </g>
     <g id="text_10">
      <!-- 120000 -->
      <g transform="translate(20.878125 73.825058) scale(0.1 -0.1)">
       <use xlink:href="#DejaVuSans-31"/>
       <use xlink:href="#DejaVuSans-32" x="63.623047"/>
       <use xlink:href="#DejaVuSans-30" x="127.246094"/>
       <use xlink:href="#DejaVuSans-30" x="190.869141"/>
       <use xlink:href="#DejaVuSans-30" x="254.492188"/>
       <use xlink:href="#DejaVuSans-30" x="318.115234"/>
      </g>
     </g>
    </g>
    <g id="text_11">
     <!-- count -->
     <g transform="translate(14.798438 240.927813) rotate(-90) scale(0.1 -0.1)">
      <defs>
       <path id="DejaVuSans-Bold-63" d="M 3366 3391 
L 3366 2478 
Q 3138 2634 2908 2709 
Q 2678 2784 2431 2784 
Q 1963 2784 1702 2511 
Q 1441 2238 1441 1747 
Q 1441 1256 1702 982 
Q 1963 709 2431 709 
Q 2694 709 2930 787 
Q 3166 866 3366 1019 
L 3366 103 
Q 3103 6 2833 -42 
Q 2563 -91 2291 -91 
Q 1344 -91 809 395 
Q 275 881 275 1747 
Q 275 2613 809 3098 
Q 1344 3584 2291 3584 
Q 2566 3584 2833 3536 
Q 3100 3488 3366 3391 
z
" transform="scale(0.015625)"/>
       <path id="DejaVuSans-Bold-6f" d="M 2203 2784 
Q 1831 2784 1636 2517 
Q 1441 2250 1441 1747 
Q 1441 1244 1636 976 
Q 1831 709 2203 709 
Q 2569 709 2762 976 
Q 2956 1244 2956 1747 
Q 2956 2250 2762 2517 
Q 2569 2784 2203 2784 
z
M 2203 3584 
Q 3106 3584 3614 3096 
Q 4122 2609 4122 1747 
Q 4122 884 3614 396 
Q 3106 -91 2203 -91 
Q 1297 -91 786 396 
Q 275 884 275 1747 
Q 275 2609 786 3096 
Q 1297 3584 2203 3584 
z
" transform="scale(0.015625)"/>
       <path id="DejaVuSans-Bold-6e" d="M 4056 2131 
L 4056 0 
L 2931 0 
L 2931 347 
L 2931 1631 
Q 2931 2084 2911 2256 
Q 2891 2428 2841 2509 
Q 2775 2619 2662 2680 
Q 2550 2741 2406 2741 
Q 2056 2741 1856 2470 
Q 1656 2200 1656 1722 
L 1656 0 
L 538 0 
L 538 3500 
L 1656 3500 
L 1656 2988 
Q 1909 3294 2193 3439 
Q 2478 3584 2822 3584 
Q 3428 3584 3742 3212 
Q 4056 2841 4056 2131 
z
" transform="scale(0.015625)"/>
      </defs>
      <use xlink:href="#DejaVuSans-Bold-63"/>
      <use xlink:href="#DejaVuSans-Bold-6f" x="59.277344"/>
      <use xlink:href="#DejaVuSans-Bold-75" x="127.978516"/>
      <use xlink:href="#DejaVuSans-Bold-6e" x="199.169922"/>
      <use xlink:href="#DejaVuSans-Bold-74" x="270.361328"/>
     </g>
    </g>
   </g>
   <g id="patch_5">
    <path d="M 66.053125 388.6 
L 66.053125 61.44 
" style="fill: none; stroke: #000000; stroke-width: 0.8; stroke-linejoin: miter; stroke-linecap: square"/>
   </g>
   <g id="patch_6">
    <path d="M 352.683125 388.6 
L 352.683125 61.44 
" style="fill: none; stroke: #000000; stroke-width: 0.8; stroke-linejoin: miter; stroke-linecap: square"/>
   </g>
   <g id="patch_7">
    <path d="M 66.053125 388.6 
L 352.683125 388.6 
" style="fill: none; stroke: #000000; stroke-width: 0.8; stroke-linejoin: miter; stroke-linecap: square"/>
   </g>
   <g id="patch_8">
    <path d="M 66.053125 61.44 
L 352.683125 61.44 
" style="fill: none; stroke: #000000; stroke-width: 0.8; stroke-linejoin: miter; stroke-linecap: square"/>
   </g>
   <g id="text_12">
    <!-- 112031 -->
    <g transform="translate(118.623125 89.102131) scale(0.1 -0.1)">
     <defs>
      <path id="DejaVuSans-33" d="M 2597 2516 
Q 3050 2419 3304 2112 
Q 3559 1806 3559 1356 
Q 3559 666 3084 287 
Q 2609 -91 1734 -91 
Q 1441 -91 1130 -33 
Q 819 25 488 141 
L 488 750 
Q 750 597 1062 519 
Q 1375 441 1716 441 
Q 2309 441 2620 675 
Q 2931 909 2931 1356 
Q 2931 1769 2642 2001 
Q 2353 2234 1838 2234 
L 1294 2234 
L 1294 2753 
L 1863 2753 
Q 2328 2753 2575 2939 
Q 2822 3125 2822 3475 
Q 2822 3834 2567 4026 
Q 2313 4219 1838 4219 
Q 1578 4219 1281 4162 
Q 984 4106 628 3988 
L 628 4550 
Q 988 4650 1302 4700 
Q 1616 4750 1894 4750 
Q 2613 4750 3031 4423 
Q 3450 4097 3450 3541 
Q 3450 3153 3228 2886 
Q 3006 2619 2597 2516 
z
" transform="scale(0.015625)"/>
     </defs>
     <use xlink:href="#DejaVuSans-31"/>
     <use xlink:href="#DejaVuSans-31" x="63.623047"/>
     <use xlink:href="#DejaVuSans-32" x="127.246094"/>
     <use xlink:href="#DejaVuSans-30" x="190.869141"/>
     <use xlink:href="#DejaVuSans-33" x="254.492188"/>
     <use xlink:href="#DejaVuSans-31" x="318.115234"/>
    </g>
   </g>
   <g id="text_13">
    <!-- 36639 -->
    <g transform="translate(265.119375 289.251657) scale(0.1 -0.1)">
     <defs>
      <path id="DejaVuSans-39" d="M 703 97 
L 703 672 
Q 941 559 1184 500 
Q 1428 441 1663 441 
Q 2288 441 2617 861 
Q 2947 1281 2994 2138 
Q 2813 1869 2534 1725 
Q 2256 1581 1919 1581 
Q 1219 1581 811 2004 
Q 403 2428 403 3163 
Q 403 3881 828 4315 
Q 1253 4750 1959 4750 
Q 2769 4750 3195 4129 
Q 3622 3509 3622 2328 
Q 3622 1225 3098 567 
Q 2575 -91 1691 -91 
Q 1453 -91 1209 -44 
Q 966 3 703 97 
z
M 1959 2075 
Q 2384 2075 2632 2365 
Q 2881 2656 2881 3163 
Q 2881 3666 2632 3958 
Q 2384 4250 1959 4250 
Q 1534 4250 1286 3958 
Q 1038 3666 1038 3163 
Q 1038 2656 1286 2365 
Q 1534 2075 1959 2075 
z
" transform="scale(0.015625)"/>
     </defs>
     <use xlink:href="#DejaVuSans-33"/>
     <use xlink:href="#DejaVuSans-36" x="63.623047"/>
     <use xlink:href="#DejaVuSans-36" x="127.246094"/>
     <use xlink:href="#DejaVuSans-33" x="190.869141"/>
     <use xlink:href="#DejaVuSans-39" x="254.492188"/>
    </g>
   </g>
   <g id="text_14">
    <!--  Distribution of status -->
    <g transform="translate(134.795625 55.44) scale(0.12 -0.12)">
     <defs>
      <path id="DejaVuSans-Bold-20" transform="scale(0.015625)"/>
      <path id="DejaVuSans-Bold-44" d="M 1791 3756 
L 1791 909 
L 2222 909 
Q 2959 909 3348 1275 
Q 3738 1641 3738 2338 
Q 3738 3031 3350 3393 
Q 2963 3756 2222 3756 
L 1791 3756 
z
M 588 4666 
L 1856 4666 
Q 2919 4666 3439 4514 
Q 3959 4363 4331 4000 
Q 4659 3684 4818 3271 
Q 4978 2859 4978 2338 
Q 4978 1809 4818 1395 
Q 4659 981 4331 666 
Q 3956 303 3431 151 
Q 2906 0 1856 0 
L 588 0 
L 588 4666 
z
" transform="scale(0.015625)"/>
      <path id="DejaVuSans-Bold-69" d="M 538 3500 
L 1656 3500 
L 1656 0 
L 538 0 
L 538 3500 
z
M 538 4863 
L 1656 4863 
L 1656 3950 
L 538 3950 
L 538 4863 
z
" transform="scale(0.015625)"/>
      <path id="DejaVuSans-Bold-72" d="M 3138 2547 
Q 2991 2616 2845 2648 
Q 2700 2681 2553 2681 
Q 2122 2681 1889 2404 
Q 1656 2128 1656 1613 
L 1656 0 
L 538 0 
L 538 3500 
L 1656 3500 
L 1656 2925 
Q 1872 3269 2151 3426 
Q 2431 3584 2822 3584 
Q 2878 3584 2943 3579 
Q 3009 3575 3134 3559 
L 3138 2547 
z
" transform="scale(0.015625)"/>
      <path id="DejaVuSans-Bold-62" d="M 2400 722 
Q 2759 722 2948 984 
Q 3138 1247 3138 1747 
Q 3138 2247 2948 2509 
Q 2759 2772 2400 2772 
Q 2041 2772 1848 2508 
Q 1656 2244 1656 1747 
Q 1656 1250 1848 986 
Q 2041 722 2400 722 
z
M 1656 2988 
Q 1888 3294 2169 3439 
Q 2450 3584 2816 3584 
Q 3463 3584 3878 3070 
Q 4294 2556 4294 1747 
Q 4294 938 3878 423 
Q 3463 -91 2816 -91 
Q 2450 -91 2169 54 
Q 1888 200 1656 506 
L 1656 0 
L 538 0 
L 538 4863 
L 1656 4863 
L 1656 2988 
z
" transform="scale(0.015625)"/>
      <path id="DejaVuSans-Bold-66" d="M 2841 4863 
L 2841 4128 
L 2222 4128 
Q 1984 4128 1890 4042 
Q 1797 3956 1797 3744 
L 1797 3500 
L 2753 3500 
L 2753 2700 
L 1797 2700 
L 1797 0 
L 678 0 
L 678 2700 
L 122 2700 
L 122 3500 
L 678 3500 
L 678 3744 
Q 678 4316 997 4589 
Q 1316 4863 1984 4863 
L 2841 4863 
z
" transform="scale(0.015625)"/>
     </defs>
     <use xlink:href="#DejaVuSans-Bold-20"/>
     <use xlink:href="#DejaVuSans-Bold-44" x="34.814453"/>
     <use xlink:href="#DejaVuSans-Bold-69" x="117.822266"/>
     <use xlink:href="#DejaVuSans-Bold-73" x="152.099609"/>
     <use xlink:href="#DejaVuSans-Bold-74" x="211.621094"/>
     <use xlink:href="#DejaVuSans-Bold-72" x="259.423828"/>
     <use xlink:href="#DejaVuSans-Bold-69" x="308.740234"/>
     <use xlink:href="#DejaVuSans-Bold-62" x="343.017578"/>
     <use xlink:href="#DejaVuSans-Bold-75" x="414.599609"/>
     <use xlink:href="#DejaVuSans-Bold-74" x="485.791016"/>
     <use xlink:href="#DejaVuSans-Bold-69" x="533.59375"/>
     <use xlink:href="#DejaVuSans-Bold-6f" x="567.871094"/>
     <use xlink:href="#DejaVuSans-Bold-6e" x="636.572266"/>
     <use xlink:href="#DejaVuSans-Bold-20" x="707.763672"/>
     <use xlink:href="#DejaVuSans-Bold-6f" x="742.578125"/>
     <use xlink:href="#DejaVuSans-Bold-66" x="811.279297"/>
     <use xlink:href="#DejaVuSans-Bold-20" x="854.785156"/>
     <use xlink:href="#DejaVuSans-Bold-73" x="889.599609"/>
     <use xlink:href="#DejaVuSans-Bold-74" x="949.121094"/>
     <use xlink:href="#DejaVuSans-Bold-61" x="996.923828"/>
     <use xlink:href="#DejaVuSans-Bold-74" x="1064.404297"/>
     <use xlink:href="#DejaVuSans-Bold-75" x="1112.207031"/>
     <use xlink:href="#DejaVuSans-Bold-73" x="1183.398438"/>
    </g>
   </g>
  </g>
  <g id="axes_2">
   <g id="patch_9">
    <path d="M 422.453125 388.6 
L 709.083125 388.6 
L 709.083125 61.44 
L 422.453125 61.44 
z
" style="fill: #ffffff"/>
   </g>
   <g id="patch_10">
    <path d="M 458.281875 388.6 
L 529.939375 388.6 
L 529.939375 91.181818 
L 458.281875 91.181818 
z
" clip-path="url(#pbb7827f2a3)" style="fill: #84b293"/>
   </g>
   <g id="patch_11">
    <path d="M 601.596875 388.6 
L 673.254375 388.6 
L 673.254375 239.655223 
L 601.596875 239.655223 
z
" clip-path="url(#pbb7827f2a3)" style="fill: #84b293"/>
   </g>
   <g id="matplotlib.axis_3">
    <g id="xtick_3">
     <g id="line2d_10">
      <g>
       <use xlink:href="#m4f609f02f7" x="494.110625" y="388.6" style="stroke: #000000; stroke-width: 0.8"/>
      </g>
     </g>
     <g id="text_15">
      <!-- 0 -->
      <g transform="translate(490.929375 403.198438) scale(0.1 -0.1)">
       <use xlink:href="#DejaVuSans-30"/>
      </g>
     </g>
    </g>
    <g id="xtick_4">
     <g id="line2d_11">
      <g>
       <use xlink:href="#m4f609f02f7" x="637.425625" y="388.6" style="stroke: #000000; stroke-width: 0.8"/>
      </g>
     </g>
     <g id="text_16">
      <!-- 1 -->
      <g transform="translate(634.244375 403.198438) scale(0.1 -0.1)">
       <use xlink:href="#DejaVuSans-31"/>
      </g>
     </g>
    </g>
    <g id="text_17">
     <!-- high_interest_rate -->
     <g transform="translate(514.457969 416.876562) scale(0.1 -0.1)">
      <defs>
       <path id="DejaVuSans-Bold-68" d="M 4056 2131 
L 4056 0 
L 2931 0 
L 2931 347 
L 2931 1625 
Q 2931 2084 2911 2256 
Q 2891 2428 2841 2509 
Q 2775 2619 2662 2680 
Q 2550 2741 2406 2741 
Q 2056 2741 1856 2470 
Q 1656 2200 1656 1722 
L 1656 0 
L 538 0 
L 538 4863 
L 1656 4863 
L 1656 2988 
Q 1909 3294 2193 3439 
Q 2478 3584 2822 3584 
Q 3428 3584 3742 3212 
Q 4056 2841 4056 2131 
z
" transform="scale(0.015625)"/>
       <path id="DejaVuSans-Bold-67" d="M 2919 594 
Q 2688 288 2409 144 
Q 2131 0 1766 0 
Q 1125 0 706 504 
Q 288 1009 288 1791 
Q 288 2575 706 3076 
Q 1125 3578 1766 3578 
Q 2131 3578 2409 3434 
Q 2688 3291 2919 2981 
L 2919 3500 
L 4044 3500 
L 4044 353 
Q 4044 -491 3511 -936 
Q 2978 -1381 1966 -1381 
Q 1638 -1381 1331 -1331 
Q 1025 -1281 716 -1178 
L 716 -306 
Q 1009 -475 1290 -558 
Q 1572 -641 1856 -641 
Q 2406 -641 2662 -400 
Q 2919 -159 2919 353 
L 2919 594 
z
M 2181 2772 
Q 1834 2772 1640 2515 
Q 1447 2259 1447 1791 
Q 1447 1309 1634 1061 
Q 1822 813 2181 813 
Q 2531 813 2725 1069 
Q 2919 1325 2919 1791 
Q 2919 2259 2725 2515 
Q 2531 2772 2181 2772 
z
" transform="scale(0.015625)"/>
       <path id="DejaVuSans-Bold-5f" d="M 3200 -916 
L 3200 -1509 
L 0 -1509 
L 0 -916 
L 3200 -916 
z
" transform="scale(0.015625)"/>
       <path id="DejaVuSans-Bold-65" d="M 4031 1759 
L 4031 1441 
L 1416 1441 
Q 1456 1047 1700 850 
Q 1944 653 2381 653 
Q 2734 653 3104 758 
Q 3475 863 3866 1075 
L 3866 213 
Q 3469 63 3072 -14 
Q 2675 -91 2278 -91 
Q 1328 -91 801 392 
Q 275 875 275 1747 
Q 275 2603 792 3093 
Q 1309 3584 2216 3584 
Q 3041 3584 3536 3087 
Q 4031 2591 4031 1759 
z
M 2881 2131 
Q 2881 2450 2695 2645 
Q 2509 2841 2209 2841 
Q 1884 2841 1681 2658 
Q 1478 2475 1428 2131 
L 2881 2131 
z
" transform="scale(0.015625)"/>
      </defs>
      <use xlink:href="#DejaVuSans-Bold-68"/>
      <use xlink:href="#DejaVuSans-Bold-69" x="71.191406"/>
      <use xlink:href="#DejaVuSans-Bold-67" x="105.46875"/>
      <use xlink:href="#DejaVuSans-Bold-68" x="177.050781"/>
      <use xlink:href="#DejaVuSans-Bold-5f" x="248.242188"/>
      <use xlink:href="#DejaVuSans-Bold-69" x="298.242188"/>
      <use xlink:href="#DejaVuSans-Bold-6e" x="332.519531"/>
      <use xlink:href="#DejaVuSans-Bold-74" x="403.710938"/>
      <use xlink:href="#DejaVuSans-Bold-65" x="451.513672"/>
      <use xlink:href="#DejaVuSans-Bold-72" x="519.335938"/>
      <use xlink:href="#DejaVuSans-Bold-65" x="568.652344"/>
      <use xlink:href="#DejaVuSans-Bold-73" x="636.474609"/>
      <use xlink:href="#DejaVuSans-Bold-74" x="695.996094"/>
      <use xlink:href="#DejaVuSans-Bold-5f" x="743.798828"/>
      <use xlink:href="#DejaVuSans-Bold-72" x="793.798828"/>
      <use xlink:href="#DejaVuSans-Bold-61" x="843.115234"/>
      <use xlink:href="#DejaVuSans-Bold-74" x="910.595703"/>
      <use xlink:href="#DejaVuSans-Bold-65" x="958.398438"/>
     </g>
    </g>
   </g>
   <g id="matplotlib.axis_4">
    <g id="ytick_8">
     <g id="line2d_12">
      <g>
       <use xlink:href="#me421b60e24" x="422.453125" y="388.6" style="stroke: #000000; stroke-width: 0.8"/>
      </g>
     </g>
     <g id="text_18">
      <!-- 0 -->
      <g transform="translate(409.090625 392.399219) scale(0.1 -0.1)">
       <use xlink:href="#DejaVuSans-30"/>
      </g>
     </g>
    </g>
    <g id="ytick_9">
     <g id="line2d_13">
      <g>
       <use xlink:href="#me421b60e24" x="422.453125" y="328.552518" style="stroke: #000000; stroke-width: 0.8"/>
      </g>
     </g>
     <g id="text_19">
      <!-- 20000 -->
      <g transform="translate(383.640625 332.351737) scale(0.1 -0.1)">
       <use xlink:href="#DejaVuSans-32"/>
       <use xlink:href="#DejaVuSans-30" x="63.623047"/>
       <use xlink:href="#DejaVuSans-30" x="127.246094"/>
       <use xlink:href="#DejaVuSans-30" x="190.869141"/>
       <use xlink:href="#DejaVuSans-30" x="254.492188"/>
      </g>
     </g>
    </g>
    <g id="ytick_10">
     <g id="line2d_14">
      <g>
       <use xlink:href="#me421b60e24" x="422.453125" y="268.505036" style="stroke: #000000; stroke-width: 0.8"/>
      </g>
     </g>
     <g id="text_20">
      <!-- 40000 -->
      <g transform="translate(383.640625 272.304254) scale(0.1 -0.1)">
       <use xlink:href="#DejaVuSans-34"/>
       <use xlink:href="#DejaVuSans-30" x="63.623047"/>
       <use xlink:href="#DejaVuSans-30" x="127.246094"/>
       <use xlink:href="#DejaVuSans-30" x="190.869141"/>
       <use xlink:href="#DejaVuSans-30" x="254.492188"/>
      </g>
     </g>
    </g>
    <g id="ytick_11">
     <g id="line2d_15">
      <g>
       <use xlink:href="#me421b60e24" x="422.453125" y="208.457553" style="stroke: #000000; stroke-width: 0.8"/>
      </g>
     </g>
     <g id="text_21">
      <!-- 60000 -->
      <g transform="translate(383.640625 212.256772) scale(0.1 -0.1)">
       <use xlink:href="#DejaVuSans-36"/>
       <use xlink:href="#DejaVuSans-30" x="63.623047"/>
       <use xlink:href="#DejaVuSans-30" x="127.246094"/>
       <use xlink:href="#DejaVuSans-30" x="190.869141"/>
       <use xlink:href="#DejaVuSans-30" x="254.492188"/>
      </g>
     </g>
    </g>
    <g id="ytick_12">
     <g id="line2d_16">
      <g>
       <use xlink:href="#me421b60e24" x="422.453125" y="148.410071" style="stroke: #000000; stroke-width: 0.8"/>
      </g>
     </g>
     <g id="text_22">
      <!-- 80000 -->
      <g transform="translate(383.640625 152.20929) scale(0.1 -0.1)">
       <use xlink:href="#DejaVuSans-38"/>
       <use xlink:href="#DejaVuSans-30" x="63.623047"/>
       <use xlink:href="#DejaVuSans-30" x="127.246094"/>
       <use xlink:href="#DejaVuSans-30" x="190.869141"/>
       <use xlink:href="#DejaVuSans-30" x="254.492188"/>
      </g>
     </g>
    </g>
    <g id="ytick_13">
     <g id="line2d_17">
      <g>
       <use xlink:href="#me421b60e24" x="422.453125" y="88.362589" style="stroke: #000000; stroke-width: 0.8"/>
      </g>
     </g>
     <g id="text_23">
      <!-- 100000 -->
      <g transform="translate(377.278125 92.161808) scale(0.1 -0.1)">
       <use xlink:href="#DejaVuSans-31"/>
       <use xlink:href="#DejaVuSans-30" x="63.623047"/>
       <use xlink:href="#DejaVuSans-30" x="127.246094"/>
       <use xlink:href="#DejaVuSans-30" x="190.869141"/>
       <use xlink:href="#DejaVuSans-30" x="254.492188"/>
       <use xlink:href="#DejaVuSans-30" x="318.115234"/>
      </g>
     </g>
    </g>
    <g id="text_24">
     <!-- count -->
     <g transform="translate(371.198438 240.927813) rotate(-90) scale(0.1 -0.1)">
      <use xlink:href="#DejaVuSans-Bold-63"/>
      <use xlink:href="#DejaVuSans-Bold-6f" x="59.277344"/>
      <use xlink:href="#DejaVuSans-Bold-75" x="127.978516"/>
      <use xlink:href="#DejaVuSans-Bold-6e" x="199.169922"/>
      <use xlink:href="#DejaVuSans-Bold-74" x="270.361328"/>
     </g>
    </g>
   </g>
   <g id="patch_12">
    <path d="M 422.453125 388.6 
L 422.453125 61.44 
" style="fill: none; stroke: #000000; stroke-width: 0.8; stroke-linejoin: miter; stroke-linecap: square"/>
   </g>
   <g id="patch_13">
    <path d="M 709.083125 388.6 
L 709.083125 61.44 
" style="fill: none; stroke: #000000; stroke-width: 0.8; stroke-linejoin: miter; stroke-linecap: square"/>
   </g>
   <g id="patch_14">
    <path d="M 422.453125 388.6 
L 709.083125 388.6 
" style="fill: none; stroke: #000000; stroke-width: 0.8; stroke-linejoin: miter; stroke-linecap: square"/>
   </g>
   <g id="patch_15">
    <path d="M 422.453125 61.44 
L 709.083125 61.44 
" style="fill: none; stroke: #000000; stroke-width: 0.8; stroke-linejoin: miter; stroke-linecap: square"/>
   </g>
   <g id="text_25">
    <!-- 99061 -->
    <g transform="translate(478.204375 89.102131) scale(0.1 -0.1)">
     <use xlink:href="#DejaVuSans-39"/>
     <use xlink:href="#DejaVuSans-39" x="63.623047"/>
     <use xlink:href="#DejaVuSans-30" x="127.246094"/>
     <use xlink:href="#DejaVuSans-36" x="190.869141"/>
     <use xlink:href="#DejaVuSans-31" x="254.492188"/>
    </g>
   </g>
   <g id="text_26">
    <!-- 49609 -->
    <g transform="translate(621.519375 237.575535) scale(0.1 -0.1)">
     <use xlink:href="#DejaVuSans-34"/>
     <use xlink:href="#DejaVuSans-39" x="63.623047"/>
     <use xlink:href="#DejaVuSans-36" x="127.246094"/>
     <use xlink:href="#DejaVuSans-30" x="190.869141"/>
     <use xlink:href="#DejaVuSans-39" x="254.492188"/>
    </g>
   </g>
   <g id="text_27">
    <!--  Distribution of high_interest_rate -->
    <g transform="translate(450.82125 55.44) scale(0.12 -0.12)">
     <use xlink:href="#DejaVuSans-Bold-20"/>
     <use xlink:href="#DejaVuSans-Bold-44" x="34.814453"/>
     <use xlink:href="#DejaVuSans-Bold-69" x="117.822266"/>
     <use xlink:href="#DejaVuSans-Bold-73" x="152.099609"/>
     <use xlink:href="#DejaVuSans-Bold-74" x="211.621094"/>
     <use xlink:href="#DejaVuSans-Bold-72" x="259.423828"/>
     <use xlink:href="#DejaVuSans-Bold-69" x="308.740234"/>
     <use xlink:href="#DejaVuSans-Bold-62" x="343.017578"/>
     <use xlink:href="#DejaVuSans-Bold-75" x="414.599609"/>
     <use xlink:href="#DejaVuSans-Bold-74" x="485.791016"/>
     <use xlink:href="#DejaVuSans-Bold-69" x="533.59375"/>
     <use xlink:href="#DejaVuSans-Bold-6f" x="567.871094"/>
     <use xlink:href="#DejaVuSans-Bold-6e" x="636.572266"/>
     <use xlink:href="#DejaVuSans-Bold-20" x="707.763672"/>
     <use xlink:href="#DejaVuSans-Bold-6f" x="742.578125"/>
     <use xlink:href="#DejaVuSans-Bold-66" x="811.279297"/>
     <use xlink:href="#DejaVuSans-Bold-20" x="854.785156"/>
     <use xlink:href="#DejaVuSans-Bold-68" x="889.599609"/>
     <use xlink:href="#DejaVuSans-Bold-69" x="960.791016"/>
     <use xlink:href="#DejaVuSans-Bold-67" x="995.068359"/>
     <use xlink:href="#DejaVuSans-Bold-68" x="1066.650391"/>
     <use xlink:href="#DejaVuSans-Bold-5f" x="1137.841797"/>
     <use xlink:href="#DejaVuSans-Bold-69" x="1187.841797"/>
     <use xlink:href="#DejaVuSans-Bold-6e" x="1222.119141"/>
     <use xlink:href="#DejaVuSans-Bold-74" x="1293.310547"/>
     <use xlink:href="#DejaVuSans-Bold-65" x="1341.113281"/>
     <use xlink:href="#DejaVuSans-Bold-72" x="1408.935547"/>
     <use xlink:href="#DejaVuSans-Bold-65" x="1458.251953"/>
     <use xlink:href="#DejaVuSans-Bold-73" x="1526.074219"/>
     <use xlink:href="#DejaVuSans-Bold-74" x="1585.595703"/>
     <use xlink:href="#DejaVuSans-Bold-5f" x="1633.398438"/>
     <use xlink:href="#DejaVuSans-Bold-72" x="1683.398438"/>
     <use xlink:href="#DejaVuSans-Bold-61" x="1732.714844"/>
     <use xlink:href="#DejaVuSans-Bold-74" x="1800.195312"/>
     <use xlink:href="#DejaVuSans-Bold-65" x="1847.998047"/>
    </g>
   </g>
  </g>
  <g id="axes_3">
   <g id="patch_16">
    <path d="M 778.853125 388.6 
L 1065.483125 388.6 
L 1065.483125 61.44 
L 778.853125 61.44 
z
" style="fill: #ffffff"/>
   </g>
   <g id="patch_17">
    <path d="M 814.681875 388.6 
L 886.339375 388.6 
L 886.339375 91.181818 
L 814.681875 91.181818 
z
" clip-path="url(#pb41aca3238)" style="fill: #84b293"/>
   </g>
   <g id="patch_18">
    <path d="M 957.996875 388.6 
L 1029.654375 388.6 
L 1029.654375 184.786434 
L 957.996875 184.786434 
z
" clip-path="url(#pb41aca3238)" style="fill: #84b293"/>
   </g>
   <g id="matplotlib.axis_5">
    <g id="xtick_5">
     <g id="line2d_18">
      <g>
       <use xlink:href="#m4f609f02f7" x="850.510625" y="388.6" style="stroke: #000000; stroke-width: 0.8"/>
      </g>
     </g>
     <g id="text_28">
      <!-- 0 -->
      <g transform="translate(847.329375 403.198438) scale(0.1 -0.1)">
       <use xlink:href="#DejaVuSans-30"/>
      </g>
     </g>
    </g>
    <g id="xtick_6">
     <g id="line2d_19">
      <g>
       <use xlink:href="#m4f609f02f7" x="993.825625" y="388.6" style="stroke: #000000; stroke-width: 0.8"/>
      </g>
     </g>
     <g id="text_29">
      <!-- 1 -->
      <g transform="translate(990.644375 403.198438) scale(0.1 -0.1)">
       <use xlink:href="#DejaVuSans-31"/>
      </g>
     </g>
    </g>
    <g id="text_30">
     <!-- senior_age -->
     <g transform="translate(891.782188 416.876562) scale(0.1 -0.1)">
      <use xlink:href="#DejaVuSans-Bold-73"/>
      <use xlink:href="#DejaVuSans-Bold-65" x="59.521484"/>
      <use xlink:href="#DejaVuSans-Bold-6e" x="127.34375"/>
      <use xlink:href="#DejaVuSans-Bold-69" x="198.535156"/>
      <use xlink:href="#DejaVuSans-Bold-6f" x="232.8125"/>
      <use xlink:href="#DejaVuSans-Bold-72" x="301.513672"/>
      <use xlink:href="#DejaVuSans-Bold-5f" x="350.830078"/>
      <use xlink:href="#DejaVuSans-Bold-61" x="400.830078"/>
      <use xlink:href="#DejaVuSans-Bold-67" x="468.310547"/>
      <use xlink:href="#DejaVuSans-Bold-65" x="539.892578"/>
     </g>
    </g>
   </g>
   <g id="matplotlib.axis_6">
    <g id="ytick_14">
     <g id="line2d_20">
      <g>
       <use xlink:href="#me421b60e24" x="778.853125" y="388.6" style="stroke: #000000; stroke-width: 0.8"/>
      </g>
     </g>
     <g id="text_31">
      <!-- 0 -->
      <g transform="translate(765.490625 392.399219) scale(0.1 -0.1)">
       <use xlink:href="#DejaVuSans-30"/>
      </g>
     </g>
    </g>
    <g id="ytick_15">
     <g id="line2d_21">
      <g>
       <use xlink:href="#me421b60e24" x="778.853125" y="321.171232" style="stroke: #000000; stroke-width: 0.8"/>
      </g>
     </g>
     <g id="text_32">
      <!-- 20000 -->
      <g transform="translate(740.040625 324.970451) scale(0.1 -0.1)">
       <use xlink:href="#DejaVuSans-32"/>
       <use xlink:href="#DejaVuSans-30" x="63.623047"/>
       <use xlink:href="#DejaVuSans-30" x="127.246094"/>
       <use xlink:href="#DejaVuSans-30" x="190.869141"/>
       <use xlink:href="#DejaVuSans-30" x="254.492188"/>
      </g>
     </g>
    </g>
    <g id="ytick_16">
     <g id="line2d_22">
      <g>
       <use xlink:href="#me421b60e24" x="778.853125" y="253.742464" style="stroke: #000000; stroke-width: 0.8"/>
      </g>
     </g>
     <g id="text_33">
      <!-- 40000 -->
      <g transform="translate(740.040625 257.541683) scale(0.1 -0.1)">
       <use xlink:href="#DejaVuSans-34"/>
       <use xlink:href="#DejaVuSans-30" x="63.623047"/>
       <use xlink:href="#DejaVuSans-30" x="127.246094"/>
       <use xlink:href="#DejaVuSans-30" x="190.869141"/>
       <use xlink:href="#DejaVuSans-30" x="254.492188"/>
      </g>
     </g>
    </g>
    <g id="ytick_17">
     <g id="line2d_23">
      <g>
       <use xlink:href="#me421b60e24" x="778.853125" y="186.313696" style="stroke: #000000; stroke-width: 0.8"/>
      </g>
     </g>
     <g id="text_34">
      <!-- 60000 -->
      <g transform="translate(740.040625 190.112914) scale(0.1 -0.1)">
       <use xlink:href="#DejaVuSans-36"/>
       <use xlink:href="#DejaVuSans-30" x="63.623047"/>
       <use xlink:href="#DejaVuSans-30" x="127.246094"/>
       <use xlink:href="#DejaVuSans-30" x="190.869141"/>
       <use xlink:href="#DejaVuSans-30" x="254.492188"/>
      </g>
     </g>
    </g>
    <g id="ytick_18">
     <g id="line2d_24">
      <g>
       <use xlink:href="#me421b60e24" x="778.853125" y="118.884928" style="stroke: #000000; stroke-width: 0.8"/>
      </g>
     </g>
     <g id="text_35">
      <!-- 80000 -->
      <g transform="translate(740.040625 122.684146) scale(0.1 -0.1)">
       <use xlink:href="#DejaVuSans-38"/>
       <use xlink:href="#DejaVuSans-30" x="63.623047"/>
       <use xlink:href="#DejaVuSans-30" x="127.246094"/>
       <use xlink:href="#DejaVuSans-30" x="190.869141"/>
       <use xlink:href="#DejaVuSans-30" x="254.492188"/>
      </g>
     </g>
    </g>
    <g id="text_36">
     <!-- count -->
     <g transform="translate(733.960938 240.927813) rotate(-90) scale(0.1 -0.1)">
      <use xlink:href="#DejaVuSans-Bold-63"/>
      <use xlink:href="#DejaVuSans-Bold-6f" x="59.277344"/>
      <use xlink:href="#DejaVuSans-Bold-75" x="127.978516"/>
      <use xlink:href="#DejaVuSans-Bold-6e" x="199.169922"/>
      <use xlink:href="#DejaVuSans-Bold-74" x="270.361328"/>
     </g>
    </g>
   </g>
   <g id="patch_19">
    <path d="M 778.853125 388.6 
L 778.853125 61.44 
" style="fill: none; stroke: #000000; stroke-width: 0.8; stroke-linejoin: miter; stroke-linecap: square"/>
   </g>
   <g id="patch_20">
    <path d="M 1065.483125 388.6 
L 1065.483125 61.44 
" style="fill: none; stroke: #000000; stroke-width: 0.8; stroke-linejoin: miter; stroke-linecap: square"/>
   </g>
   <g id="patch_21">
    <path d="M 778.853125 388.6 
L 1065.483125 388.6 
" style="fill: none; stroke: #000000; stroke-width: 0.8; stroke-linejoin: miter; stroke-linecap: square"/>
   </g>
   <g id="patch_22">
    <path d="M 778.853125 61.44 
L 1065.483125 61.44 
" style="fill: none; stroke: #000000; stroke-width: 0.8; stroke-linejoin: miter; stroke-linecap: square"/>
   </g>
   <g id="text_37">
    <!-- 88217 -->
    <g transform="translate(834.604375 89.102131) scale(0.1 -0.1)">
     <defs>
      <path id="DejaVuSans-37" d="M 525 4666 
L 3525 4666 
L 3525 4397 
L 1831 0 
L 1172 0 
L 2766 4134 
L 525 4134 
L 525 4666 
z
" transform="scale(0.015625)"/>
     </defs>
     <use xlink:href="#DejaVuSans-38"/>
     <use xlink:href="#DejaVuSans-38" x="63.623047"/>
     <use xlink:href="#DejaVuSans-32" x="127.246094"/>
     <use xlink:href="#DejaVuSans-31" x="190.869141"/>
     <use xlink:href="#DejaVuSans-37" x="254.492188"/>
    </g>
   </g>
   <g id="text_38">
    <!-- 60453 -->
    <g transform="translate(977.919375 182.706747) scale(0.1 -0.1)">
     <defs>
      <path id="DejaVuSans-35" d="M 691 4666 
L 3169 4666 
L 3169 4134 
L 1269 4134 
L 1269 2991 
Q 1406 3038 1543 3061 
Q 1681 3084 1819 3084 
Q 2600 3084 3056 2656 
Q 3513 2228 3513 1497 
Q 3513 744 3044 326 
Q 2575 -91 1722 -91 
Q 1428 -91 1123 -41 
Q 819 9 494 109 
L 494 744 
Q 775 591 1075 516 
Q 1375 441 1709 441 
Q 2250 441 2565 725 
Q 2881 1009 2881 1497 
Q 2881 1984 2565 2268 
Q 2250 2553 1709 2553 
Q 1456 2553 1204 2497 
Q 953 2441 691 2322 
L 691 4666 
z
" transform="scale(0.015625)"/>
     </defs>
     <use xlink:href="#DejaVuSans-36"/>
     <use xlink:href="#DejaVuSans-30" x="63.623047"/>
     <use xlink:href="#DejaVuSans-34" x="127.246094"/>
     <use xlink:href="#DejaVuSans-35" x="190.869141"/>
     <use xlink:href="#DejaVuSans-33" x="254.492188"/>
    </g>
   </g>
   <g id="text_39">
    <!--  Distribution of senior_age -->
    <g transform="translate(832.330313 55.44) scale(0.12 -0.12)">
     <use xlink:href="#DejaVuSans-Bold-20"/>
     <use xlink:href="#DejaVuSans-Bold-44" x="34.814453"/>
     <use xlink:href="#DejaVuSans-Bold-69" x="117.822266"/>
     <use xlink:href="#DejaVuSans-Bold-73" x="152.099609"/>
     <use xlink:href="#DejaVuSans-Bold-74" x="211.621094"/>
     <use xlink:href="#DejaVuSans-Bold-72" x="259.423828"/>
     <use xlink:href="#DejaVuSans-Bold-69" x="308.740234"/>
     <use xlink:href="#DejaVuSans-Bold-62" x="343.017578"/>
     <use xlink:href="#DejaVuSans-Bold-75" x="414.599609"/>
     <use xlink:href="#DejaVuSans-Bold-74" x="485.791016"/>
     <use xlink:href="#DejaVuSans-Bold-69" x="533.59375"/>
     <use xlink:href="#DejaVuSans-Bold-6f" x="567.871094"/>
     <use xlink:href="#DejaVuSans-Bold-6e" x="636.572266"/>
     <use xlink:href="#DejaVuSans-Bold-20" x="707.763672"/>
     <use xlink:href="#DejaVuSans-Bold-6f" x="742.578125"/>
     <use xlink:href="#DejaVuSans-Bold-66" x="811.279297"/>
     <use xlink:href="#DejaVuSans-Bold-20" x="854.785156"/>
     <use xlink:href="#DejaVuSans-Bold-73" x="889.599609"/>
     <use xlink:href="#DejaVuSans-Bold-65" x="949.121094"/>
     <use xlink:href="#DejaVuSans-Bold-6e" x="1016.943359"/>
     <use xlink:href="#DejaVuSans-Bold-69" x="1088.134766"/>
     <use xlink:href="#DejaVuSans-Bold-6f" x="1122.412109"/>
     <use xlink:href="#DejaVuSans-Bold-72" x="1191.113281"/>
     <use xlink:href="#DejaVuSans-Bold-5f" x="1240.429688"/>
     <use xlink:href="#DejaVuSans-Bold-61" x="1290.429688"/>
     <use xlink:href="#DejaVuSans-Bold-67" x="1357.910156"/>
     <use xlink:href="#DejaVuSans-Bold-65" x="1429.492188"/>
    </g>
   </g>
  </g>
  <g id="text_40">
   <!-- Variability and Frequency of Limited Numerical Features -->
   <g transform="translate(281.481875 19.3575) scale(0.16 -0.16)">
    <defs>
     <path id="DejaVuSans-Bold-56" d="M 31 4666 
L 1241 4666 
L 2478 1222 
L 3713 4666 
L 4922 4666 
L 3194 0 
L 1759 0 
L 31 4666 
z
" transform="scale(0.015625)"/>
     <path id="DejaVuSans-Bold-6c" d="M 538 4863 
L 1656 4863 
L 1656 0 
L 538 0 
L 538 4863 
z
" transform="scale(0.015625)"/>
     <path id="DejaVuSans-Bold-79" d="M 78 3500 
L 1197 3500 
L 2138 1125 
L 2938 3500 
L 4056 3500 
L 2584 -331 
Q 2363 -916 2067 -1148 
Q 1772 -1381 1288 -1381 
L 641 -1381 
L 641 -647 
L 991 -647 
Q 1275 -647 1404 -556 
Q 1534 -466 1606 -231 
L 1638 -134 
L 78 3500 
z
" transform="scale(0.015625)"/>
     <path id="DejaVuSans-Bold-64" d="M 2919 2988 
L 2919 4863 
L 4044 4863 
L 4044 0 
L 2919 0 
L 2919 506 
Q 2688 197 2409 53 
Q 2131 -91 1766 -91 
Q 1119 -91 703 423 
Q 288 938 288 1747 
Q 288 2556 703 3070 
Q 1119 3584 1766 3584 
Q 2128 3584 2408 3439 
Q 2688 3294 2919 2988 
z
M 2181 722 
Q 2541 722 2730 984 
Q 2919 1247 2919 1747 
Q 2919 2247 2730 2509 
Q 2541 2772 2181 2772 
Q 1825 2772 1636 2509 
Q 1447 2247 1447 1747 
Q 1447 1247 1636 984 
Q 1825 722 2181 722 
z
" transform="scale(0.015625)"/>
     <path id="DejaVuSans-Bold-46" d="M 588 4666 
L 3834 4666 
L 3834 3756 
L 1791 3756 
L 1791 2888 
L 3713 2888 
L 3713 1978 
L 1791 1978 
L 1791 0 
L 588 0 
L 588 4666 
z
" transform="scale(0.015625)"/>
     <path id="DejaVuSans-Bold-71" d="M 2181 2772 
Q 1825 2772 1636 2509 
Q 1447 2247 1447 1747 
Q 1447 1247 1636 984 
Q 1825 722 2181 722 
Q 2541 722 2730 984 
Q 2919 1247 2919 1747 
Q 2919 2247 2730 2509 
Q 2541 2772 2181 2772 
z
M 2919 506 
Q 2688 197 2409 53 
Q 2131 -91 1766 -91 
Q 1119 -91 703 423 
Q 288 938 288 1747 
Q 288 2556 703 3067 
Q 1119 3578 1766 3578 
Q 2131 3578 2409 3434 
Q 2688 3291 2919 2981 
L 2919 3500 
L 4044 3500 
L 4044 -1331 
L 2919 -1331 
L 2919 506 
z
" transform="scale(0.015625)"/>
     <path id="DejaVuSans-Bold-4c" d="M 588 4666 
L 1791 4666 
L 1791 909 
L 3903 909 
L 3903 0 
L 588 0 
L 588 4666 
z
" transform="scale(0.015625)"/>
     <path id="DejaVuSans-Bold-6d" d="M 3781 2919 
Q 3994 3244 4286 3414 
Q 4578 3584 4928 3584 
Q 5531 3584 5847 3212 
Q 6163 2841 6163 2131 
L 6163 0 
L 5038 0 
L 5038 1825 
Q 5041 1866 5042 1909 
Q 5044 1953 5044 2034 
Q 5044 2406 4934 2573 
Q 4825 2741 4581 2741 
Q 4263 2741 4089 2478 
Q 3916 2216 3909 1719 
L 3909 0 
L 2784 0 
L 2784 1825 
Q 2784 2406 2684 2573 
Q 2584 2741 2328 2741 
Q 2006 2741 1831 2477 
Q 1656 2213 1656 1722 
L 1656 0 
L 531 0 
L 531 3500 
L 1656 3500 
L 1656 2988 
Q 1863 3284 2130 3434 
Q 2397 3584 2719 3584 
Q 3081 3584 3359 3409 
Q 3638 3234 3781 2919 
z
" transform="scale(0.015625)"/>
     <path id="DejaVuSans-Bold-4e" d="M 588 4666 
L 1931 4666 
L 3628 1466 
L 3628 4666 
L 4769 4666 
L 4769 0 
L 3425 0 
L 1728 3200 
L 1728 0 
L 588 0 
L 588 4666 
z
" transform="scale(0.015625)"/>
    </defs>
    <use xlink:href="#DejaVuSans-Bold-56"/>
    <use xlink:href="#DejaVuSans-Bold-61" x="71.892578"/>
    <use xlink:href="#DejaVuSans-Bold-72" x="139.373047"/>
    <use xlink:href="#DejaVuSans-Bold-69" x="188.689453"/>
    <use xlink:href="#DejaVuSans-Bold-61" x="222.966797"/>
    <use xlink:href="#DejaVuSans-Bold-62" x="290.447266"/>
    <use xlink:href="#DejaVuSans-Bold-69" x="362.029297"/>
    <use xlink:href="#DejaVuSans-Bold-6c" x="396.306641"/>
    <use xlink:href="#DejaVuSans-Bold-69" x="430.583984"/>
    <use xlink:href="#DejaVuSans-Bold-74" x="464.861328"/>
    <use xlink:href="#DejaVuSans-Bold-79" x="512.664062"/>
    <use xlink:href="#DejaVuSans-Bold-20" x="577.849609"/>
    <use xlink:href="#DejaVuSans-Bold-61" x="612.664062"/>
    <use xlink:href="#DejaVuSans-Bold-6e" x="680.144531"/>
    <use xlink:href="#DejaVuSans-Bold-64" x="751.335938"/>
    <use xlink:href="#DejaVuSans-Bold-20" x="822.917969"/>
    <use xlink:href="#DejaVuSans-Bold-46" x="857.732422"/>
    <use xlink:href="#DejaVuSans-Bold-72" x="919.667969"/>
    <use xlink:href="#DejaVuSans-Bold-65" x="968.984375"/>
    <use xlink:href="#DejaVuSans-Bold-71" x="1036.806641"/>
    <use xlink:href="#DejaVuSans-Bold-75" x="1108.388672"/>
    <use xlink:href="#DejaVuSans-Bold-65" x="1179.580078"/>
    <use xlink:href="#DejaVuSans-Bold-6e" x="1247.402344"/>
    <use xlink:href="#DejaVuSans-Bold-63" x="1318.59375"/>
    <use xlink:href="#DejaVuSans-Bold-79" x="1377.871094"/>
    <use xlink:href="#DejaVuSans-Bold-20" x="1443.056641"/>
    <use xlink:href="#DejaVuSans-Bold-6f" x="1477.871094"/>
    <use xlink:href="#DejaVuSans-Bold-66" x="1546.572266"/>
    <use xlink:href="#DejaVuSans-Bold-20" x="1590.078125"/>
    <use xlink:href="#DejaVuSans-Bold-4c" x="1624.892578"/>
    <use xlink:href="#DejaVuSans-Bold-69" x="1688.613281"/>
    <use xlink:href="#DejaVuSans-Bold-6d" x="1722.890625"/>
    <use xlink:href="#DejaVuSans-Bold-69" x="1827.089844"/>
    <use xlink:href="#DejaVuSans-Bold-74" x="1861.367188"/>
    <use xlink:href="#DejaVuSans-Bold-65" x="1909.169922"/>
    <use xlink:href="#DejaVuSans-Bold-64" x="1976.992188"/>
    <use xlink:href="#DejaVuSans-Bold-20" x="2048.574219"/>
    <use xlink:href="#DejaVuSans-Bold-4e" x="2083.388672"/>
    <use xlink:href="#DejaVuSans-Bold-75" x="2167.080078"/>
    <use xlink:href="#DejaVuSans-Bold-6d" x="2238.271484"/>
    <use xlink:href="#DejaVuSans-Bold-65" x="2342.470703"/>
    <use xlink:href="#DejaVuSans-Bold-72" x="2410.292969"/>
    <use xlink:href="#DejaVuSans-Bold-69" x="2459.609375"/>
    <use xlink:href="#DejaVuSans-Bold-63" x="2493.886719"/>
    <use xlink:href="#DejaVuSans-Bold-61" x="2553.164062"/>
    <use xlink:href="#DejaVuSans-Bold-6c" x="2620.644531"/>
    <use xlink:href="#DejaVuSans-Bold-20" x="2654.921875"/>
    <use xlink:href="#DejaVuSans-Bold-46" x="2689.736328"/>
    <use xlink:href="#DejaVuSans-Bold-65" x="2754.046875"/>
    <use xlink:href="#DejaVuSans-Bold-61" x="2821.869141"/>
    <use xlink:href="#DejaVuSans-Bold-74" x="2889.349609"/>
    <use xlink:href="#DejaVuSans-Bold-75" x="2937.152344"/>
    <use xlink:href="#DejaVuSans-Bold-72" x="3008.34375"/>
    <use xlink:href="#DejaVuSans-Bold-65" x="3057.660156"/>
    <use xlink:href="#DejaVuSans-Bold-73" x="3125.482422"/>
   </g>
  </g>
 </g>
 <defs>
  <clipPath id="pbfb095244f">
   <rect x="66.053125" y="61.44" width="286.63" height="327.16"/>
  </clipPath>
  <clipPath id="pbb7827f2a3">
   <rect x="422.453125" y="61.44" width="286.63" height="327.16"/>
  </clipPath>
  <clipPath id="pb41aca3238">
   <rect x="778.853125" y="61.44" width="286.63" height="327.16"/>
  </clipPath>
 </defs>
</svg>
